<svg xmlns="http://www.w3.org/2000/svg" xmlns:xlink="http://www.w3.org/1999/xlink" width="414" height="896" viewBox="0 0 414 896">
  <defs>
    <clipPath id="clip-path">
      <rect id="Rectangle_3840" data-name="Rectangle 3840" width="414" height="312" transform="translate(-5767 1968)" fill="#fff" stroke="#707070" stroke-width="1"/>
    </clipPath>
  </defs>
  <g id="Group_608" data-name="Group 608" transform="translate(5767 -1384)">
    <rect id="Rectangle_3839" data-name="Rectangle 3839" width="414" height="896" transform="translate(-5767 1384)" fill="#fff"/>
    <g id="Group_600" data-name="Group 600" transform="translate(-6487.727 1304.927) rotate(-30)" opacity="0.061">
      <path id="Path_775" data-name="Path 775" d="M599.272,525.4l-12.534,22.987L575.063,525.4h-9.551v41.088h15.325l-6.753-26.764,10.529,19.212h5l10.217-18.767-6.33,26.318h14.548V525.4Zm-28.64,4.468a1.673,1.673,0,1,1,1.672-1.673A1.673,1.673,0,0,1,570.632,529.863Zm33.151,0a1.673,1.673,0,1,1,1.674-1.673A1.673,1.673,0,0,1,603.783,529.863Z" transform="translate(0 3.014)" fill="#f6933b"/>
      <path id="Path_776" data-name="Path 776" d="M569.71,529.2s-.1-17.606,16.668-17.522,16.484,18.3,16.484,18.3" transform="translate(0.922 -0.001)" fill="none" stroke="#f6933b" stroke-miterlimit="10" stroke-width="2"/>
    </g>
    <g id="Group_601" data-name="Group 601" transform="matrix(0.809, 0.588, -0.588, 0.809, -5860.231, 966.455)" opacity="0.061">
      <path id="Path_775-2" data-name="Path 775" d="M599.272,525.4l-12.534,22.987L575.063,525.4h-9.551v41.088h15.325l-6.753-26.764,10.529,19.212h5l10.217-18.767-6.33,26.318h14.548V525.4Zm-28.64,4.468a1.673,1.673,0,1,1,1.672-1.673A1.673,1.673,0,0,1,570.632,529.863Zm33.151,0a1.673,1.673,0,1,1,1.674-1.673A1.673,1.673,0,0,1,603.783,529.863Z" transform="translate(0 3.014)" fill="#f6933b"/>
      <path id="Path_776-2" data-name="Path 776" d="M569.71,529.2s-.1-17.606,16.668-17.522,16.484,18.3,16.484,18.3" transform="translate(0.922 -0.001)" fill="none" stroke="#f6933b" stroke-miterlimit="10" stroke-width="2"/>
    </g>
    <g id="Group_602" data-name="Group 602" transform="matrix(0.809, 0.588, -0.588, 0.809, -5590.768, 908.755)" opacity="0.061">
      <path id="Path_775-3" data-name="Path 775" d="M599.272,525.4l-12.534,22.987L575.063,525.4h-9.551v41.088h15.325l-6.753-26.764,10.529,19.212h5l10.217-18.767-6.33,26.318h14.548V525.4Zm-28.64,4.468a1.673,1.673,0,1,1,1.672-1.673A1.673,1.673,0,0,1,570.632,529.863Zm33.151,0a1.673,1.673,0,1,1,1.674-1.673A1.673,1.673,0,0,1,603.783,529.863Z" transform="translate(0 3.014)" fill="#f6933b"/>
      <path id="Path_776-3" data-name="Path 776" d="M569.71,529.2s-.1-17.606,16.668-17.522,16.484,18.3,16.484,18.3" transform="translate(0.922 -0.001)" fill="none" stroke="#f6933b" stroke-miterlimit="10" stroke-width="2"/>
    </g>
    <g id="Group_603" data-name="Group 603" transform="matrix(0.809, -0.588, 0.588, 0.809, -6231.193, 1396.667)" opacity="0.061">
      <path id="Path_775-4" data-name="Path 775" d="M599.272,525.4l-12.534,22.987L575.063,525.4h-9.551v41.088h15.325l-6.753-26.764,10.529,19.212h5l10.217-18.767-6.33,26.318h14.548V525.4Zm-28.64,4.468a1.673,1.673,0,1,1,1.672-1.673A1.673,1.673,0,0,1,570.632,529.863Zm33.151,0a1.673,1.673,0,1,1,1.674-1.673A1.673,1.673,0,0,1,603.783,529.863Z" transform="translate(0 3.014)" fill="#f6933b"/>
      <path id="Path_776-4" data-name="Path 776" d="M569.71,529.2s-.1-17.606,16.668-17.522,16.484,18.3,16.484,18.3" transform="translate(0.922 -0.001)" fill="none" stroke="#f6933b" stroke-miterlimit="10" stroke-width="2"/>
    </g>
    <g id="Group_604" data-name="Group 604" transform="translate(-6071.563 943.896) rotate(8)" opacity="0.061">
      <path id="Path_775-5" data-name="Path 775" d="M599.272,525.4l-12.534,22.987L575.063,525.4h-9.551v41.088h15.325l-6.753-26.764,10.529,19.212h5l10.217-18.767-6.33,26.318h14.548V525.4Zm-28.64,4.468a1.673,1.673,0,1,1,1.672-1.673A1.673,1.673,0,0,1,570.632,529.863Zm33.151,0a1.673,1.673,0,1,1,1.674-1.673A1.673,1.673,0,0,1,603.783,529.863Z" transform="translate(0 3.014)" fill="#f6933b"/>
      <path id="Path_776-5" data-name="Path 776" d="M569.71,529.2s-.1-17.606,16.668-17.522,16.484,18.3,16.484,18.3" transform="translate(0.922 -0.001)" fill="none" stroke="#f6933b" stroke-miterlimit="10" stroke-width="2"/>
    </g>
    <g id="Group_605" data-name="Group 605" transform="translate(-5542.704 894.366) rotate(49)" opacity="0.061">
      <path id="Path_775-6" data-name="Path 775" d="M599.272,525.4l-12.534,22.987L575.063,525.4h-9.551v41.088h15.325l-6.753-26.764,10.529,19.212h5l10.217-18.767-6.33,26.318h14.548V525.4Zm-28.64,4.468a1.673,1.673,0,1,1,1.672-1.673A1.673,1.673,0,0,1,570.632,529.863Zm33.151,0a1.673,1.673,0,1,1,1.674-1.673A1.673,1.673,0,0,1,603.783,529.863Z" transform="translate(0 3.014)" fill="#f6933b"/>
      <path id="Path_776-6" data-name="Path 776" d="M569.71,529.2s-.1-17.606,16.668-17.522,16.484,18.3,16.484,18.3" transform="translate(0.922 -0.001)" fill="none" stroke="#f6933b" stroke-miterlimit="10" stroke-width="2"/>
    </g>
    <g id="Group_606" data-name="Group 606" transform="matrix(0.809, -0.588, 0.588, 0.809, -6213.193, 1812.667)" opacity="0.061">
      <path id="Path_775-7" data-name="Path 775" d="M599.272,525.4l-12.534,22.987L575.063,525.4h-9.551v41.088h15.325l-6.753-26.764,10.529,19.212h5l10.217-18.767-6.33,26.318h14.548V525.4Zm-28.64,4.468a1.673,1.673,0,1,1,1.672-1.673A1.673,1.673,0,0,1,570.632,529.863Zm33.151,0a1.673,1.673,0,1,1,1.674-1.673A1.673,1.673,0,0,1,603.783,529.863Z" transform="translate(0 3.014)" fill="#f6933b"/>
      <path id="Path_776-7" data-name="Path 776" d="M569.71,529.2s-.1-17.606,16.668-17.522,16.484,18.3,16.484,18.3" transform="translate(0.922 -0.001)" fill="none" stroke="#f6933b" stroke-miterlimit="10" stroke-width="2"/>
    </g>
    <g id="Group_607" data-name="Group 607" transform="matrix(0.809, -0.588, 0.588, 0.809, -6495.731, 1887.555)" opacity="0.061">
      <path id="Path_775-8" data-name="Path 775" d="M599.272,525.4l-12.534,22.987L575.063,525.4h-9.551v41.088h15.325l-6.753-26.764,10.529,19.212h5l10.217-18.767-6.33,26.318h14.548V525.4Zm-28.64,4.468a1.673,1.673,0,1,1,1.672-1.673A1.673,1.673,0,0,1,570.632,529.863Zm33.151,0a1.673,1.673,0,1,1,1.674-1.673A1.673,1.673,0,0,1,603.783,529.863Z" transform="translate(0 3.014)" fill="#f6933b"/>
      <path id="Path_776-8" data-name="Path 776" d="M569.71,529.2s-.1-17.606,16.668-17.522,16.484,18.3,16.484,18.3" transform="translate(0.922 -0.001)" fill="none" stroke="#f6933b" stroke-miterlimit="10" stroke-width="2"/>
    </g>
    <g id="Mask_Group_2" data-name="Mask Group 2" clip-path="url(#clip-path)">
      <g id="Group_599" data-name="Group 599" transform="translate(-6281.513 1468.32)" opacity="0.07">
        <path id="Path_775-9" data-name="Path 775" d="M812.731,525.4,720.943,693.732,635.453,525.4h-69.94V826.287H677.738L628.289,630.295l77.1,140.692h36.6L816.8,633.556,770.446,826.287H876.98V525.4ZM603,558.113a12.25,12.25,0,1,1,12.246-12.255A12.252,12.252,0,0,1,603,558.113Zm242.769,0a12.25,12.25,0,1,1,12.255-12.255A12.251,12.251,0,0,1,845.771,558.113Z" transform="translate(0 108.794)" fill="#f6933b"/>
        <path id="Path_776-9" data-name="Path 776" d="M569.71,639.995S569,511.066,691.769,511.683,812.479,645.72,812.479,645.72" transform="translate(33.292 -0.001)" fill="none" stroke="#f6933b" stroke-miterlimit="10" stroke-width="9"/>
      </g>
    </g>
  </g>
</svg>
