<svg xmlns="http://www.w3.org/2000/svg" width="32.958" height="21.593" viewBox="0 0 32.958 21.593">
  <g id="egypt_1_" data-name="egypt (1)" transform="translate(0)">
    <path id="Path_799" data-name="Path 799" d="M32.958,95.474H0V88.844a.568.568,0,0,1,.568-.568H32.389a.568.568,0,0,1,.568.568v6.629Z" transform="translate(0 -88.276)" fill="#ff4b55"/>
    <path id="Path_800" data-name="Path 800" d="M32.389,319.107H.568A.568.568,0,0,1,0,318.538v-6.629H32.958v6.629A.568.568,0,0,1,32.389,319.107Z" transform="translate(0 -297.514)" fill="#464655"/>
    <rect id="Rectangle_141" data-name="Rectangle 141" width="32.958" height="7.197" transform="translate(0 7.198)" fill="#f5f5f5"/>
    <path id="Path_801" data-name="Path 801" d="M231.442,213.583a.413.413,0,0,0-.543-.392l-.5.167-.122-.737a.9.9,0,0,0-.9-.758h-.47l-.491.6h.651l-.182.9-.53-.177a.413.413,0,0,0-.543.392v3.056l.731-.731-.345,1.034h-.387v.6h3.629v-.6h-.387l-.345-1.034.731.731v-3.056Zm-2.117,3.358h-.488l.335-.9.152.194v.7Zm.6,0v-.7l.152-.194.335.9Zm-.3-1.1a2.223,2.223,0,0,1-.9-1.814,1.429,1.429,0,0,0,.9-.6,1.43,1.43,0,0,0,.9.6A2.223,2.223,0,0,1,229.627,215.845Z" transform="translate(-213.149 -203.909)" fill="#f0c727"/>
  </g>
</svg>
