<svg xmlns="http://www.w3.org/2000/svg" width="25.829" height="25.829" viewBox="0 0 25.829 25.829">
  <path id="Icon_material-language" data-name="Icon material-language" d="M15.9,3A12.914,12.914,0,1,0,28.829,15.914,12.908,12.908,0,0,0,15.9,3Zm8.95,7.749h-3.81a20.21,20.21,0,0,0-1.782-4.6A10.37,10.37,0,0,1,24.851,10.749ZM15.914,5.635a18.192,18.192,0,0,1,2.467,5.114H13.448A18.192,18.192,0,0,1,15.914,5.635ZM5.919,18.5a10.1,10.1,0,0,1,0-5.166h4.365a21.328,21.328,0,0,0-.181,2.583,21.328,21.328,0,0,0,.181,2.583ZM6.978,21.08h3.81a20.21,20.21,0,0,0,1.782,4.6A10.314,10.314,0,0,1,6.978,21.08Zm3.81-10.331H6.978a10.314,10.314,0,0,1,5.592-4.6A20.21,20.21,0,0,0,10.787,10.749Zm5.127,15.446a18.192,18.192,0,0,1-2.467-5.114h4.933A18.192,18.192,0,0,1,15.914,26.194Zm3.022-7.7H12.892a19,19,0,0,1-.207-2.583,18.835,18.835,0,0,1,.207-2.583h6.044a18.836,18.836,0,0,1,.207,2.583A19,19,0,0,1,18.936,18.5Zm.323,7.18a20.21,20.21,0,0,0,1.782-4.6h3.81a10.37,10.37,0,0,1-5.592,4.6Zm2.286-7.18a21.328,21.328,0,0,0,.181-2.583,21.329,21.329,0,0,0-.181-2.583H25.91a10.1,10.1,0,0,1,0,5.166Z" transform="translate(-3 -3)" fill="#f48a36"/>
</svg>
