<svg xmlns="http://www.w3.org/2000/svg" width="125.85" height="135" viewBox="0 0 125.85 135">
  <g id="Group_598" data-name="Group 598" transform="translate(-123 -160)">
    <circle id="Ellipse_142" data-name="Ellipse 142" cx="61" cy="61" r="61" transform="translate(123 173)" fill="#f0f0f0"/>
    <g id="log-in" transform="translate(131.5 160)">
      <path id="Path_925" data-name="Path 925" d="M39.413,114.4H96a1.75,1.75,0,0,0,1.75-1.75V15.35A1.75,1.75,0,0,0,96,13.6H39.413a1.75,1.75,0,0,0-1.75,1.75V54a1.75,1.75,0,1,0,3.5,0V17.1H94.25v93.8H41.163V74a1.75,1.75,0,0,0-3.5,0v38.65a1.75,1.75,0,0,0,1.75,1.75Z" transform="translate(-12.163 -4.75)" fill="#191919"/>
      <path id="Path_926" data-name="Path 926" d="M7.652,121.5l39.807-17.692V24.192L7.652,6.5Z" transform="translate(68.139 -4.75)" fill="#f48a36"/>
      <g id="Group_560" data-name="Group 560" transform="translate(0 0)">
        <path id="Path_927" data-name="Path 927" d="M64,62.25h53.275l-9.523-9.523a1.75,1.75,0,0,1,2.475-2.475L122.735,62.76a1.754,1.754,0,0,1,.221.271c.025.038.042.079.064.118a1.045,1.045,0,0,1,.149.352,1.44,1.44,0,0,1,.047.157,1.756,1.756,0,0,1,0,.685c-.011.054-.031.1-.046.156a1.7,1.7,0,0,1-.053.17,1.73,1.73,0,0,1-.1.182c-.022.039-.039.081-.065.119a1.754,1.754,0,0,1-.221.271l-12.5,12.507a1.75,1.75,0,0,1-2.475-2.475l9.523-9.523H64a1.75,1.75,0,1,1,0-3.5Z" transform="translate(-62.25 -4.75)" fill="#191919"/>
        <path id="Path_928" data-name="Path 928" d="M13.076,97.083a1.75,1.75,0,0,0,1.75-1.75V66.667a1.75,1.75,0,1,0-3.5,0V95.333a1.75,1.75,0,0,0,1.75,1.75Z" transform="translate(97.098 -4.75)" fill="#191919"/>
        <path id="Path_929" data-name="Path 929" d="M47.459,78.375a1.75,1.75,0,0,1,1.75,1.75V86.25a1.75,1.75,0,1,1-3.5,0V80.125a1.75,1.75,0,0,1,1.75-1.75Z" transform="translate(28.332 -4.75)" fill="#191919"/>
        <path id="Path_930" data-name="Path 930" d="M6.7,5.032A1.755,1.755,0,0,1,8.362,4.9L48.17,22.593a1.751,1.751,0,0,1,1.039,1.6V44.1a1.75,1.75,0,0,1-3.5,0V25.33L9.4,9.192V71.75a1.75,1.75,0,0,1-3.5,0V6.5a1.75,1.75,0,0,1,.8-1.468Z" transform="translate(68.14 -4.75)" fill="#191919"/>
        <path id="Path_931" data-name="Path 931" d="M7.65,92.25A1.75,1.75,0,0,1,9.4,94v24.808L45.709,102.67V55.417a1.75,1.75,0,0,1,3.5,0v48.391a1.751,1.751,0,0,1-1.039,1.6L8.361,123.1A1.75,1.75,0,0,1,5.9,121.5V94A1.75,1.75,0,0,1,7.65,92.25Z" transform="translate(68.141 -4.75)" fill="#191919"/>
      </g>
    </g>
  </g>
</svg>
