<svg xmlns="http://www.w3.org/2000/svg" width="262.063" height="219.146" viewBox="0 0 262.063 219.146">
  <g id="Group_595" data-name="Group 595" transform="translate(-71.375 -246.854)">
    <g id="Group_543" data-name="Group 543" transform="translate(-5 -17)">
      <path id="Path_735" data-name="Path 735" d="M743.919,421.122l-.3-.877c15.849-5.359,25.761-13.99,28.666-24.963,3.693-13.949-4.33-30.137-22.59-45.58-18.353-15.522-44.82-28.4-74.524-36.265l.237-.9c29.834,7.9,56.429,20.844,74.885,36.453,18.549,15.687,26.677,32.21,22.888,46.524C770.2,406.806,760.076,415.659,743.919,421.122Z" transform="translate(-438.253 31.889)" fill="#f0f0f0"/>
      <path id="Path_738" data-name="Path 738" d="M581.6,276.868c-5.755-1.874-11.675-3.618-17.594-5.186-34.065-9.018-67.552-12.22-96.841-9.258l-.093-.921c29.4-2.972,63,.238,97.171,9.284,5.936,1.572,11.873,3.321,17.644,5.2Z" transform="translate(-319.238 61.693)" fill="#f0f0f0"/>
      <path id="Path_744" data-name="Path 744" d="M530.765,280.112c-5.755-1.874-11.675-3.618-17.594-5.186-34.065-9.018-67.552-12.22-96.841-9.258l-.093-.921c29.4-2.972,63,.238,97.171,9.284,5.936,1.572,11.873,3.321,17.644,5.2Z" transform="translate(-290.167 59.838)" fill="#f0f0f0"/>
      <circle id="Ellipse_130" data-name="Ellipse 130" cx="3.704" cy="3.704" r="3.704" transform="translate(76.375 448.296)" fill="#191919"/>
      <circle id="Ellipse_131" data-name="Ellipse 131" cx="3.704" cy="3.704" r="3.704" transform="translate(331.03 418.201)" fill="#191919"/>
      <circle id="Ellipse_139" data-name="Ellipse 139" cx="3.704" cy="3.704" r="3.704" transform="translate(107.03 349.201)" fill="#191919"/>
    </g>
    <g id="Group_532" data-name="Group 532" transform="translate(129.231 246.854)">
      <path id="Path_758" data-name="Path 758" d="M394.583,138.188h-1.2V105.2a19.091,19.091,0,0,0-19.091-19.091H304.4A19.091,19.091,0,0,0,285.311,105.2V286.166A19.091,19.091,0,0,0,304.4,305.257h69.885a19.091,19.091,0,0,0,19.091-19.091v-124.5h1.2Z" transform="translate(-285.311 -86.111)" fill="#e6e6e6"/>
      <path id="Path_759" data-name="Path 759" d="M387.285,102.606h-9.122a6.774,6.774,0,0,1-6.271,9.332H331.854a6.774,6.774,0,0,1-6.271-9.332h-8.52a14.257,14.257,0,0,0-14.257,14.257v180.7a14.257,14.257,0,0,0,14.257,14.257h70.222a14.257,14.257,0,0,0,14.257-14.257h0v-180.7a14.257,14.257,0,0,0-14.257-14.257Z" transform="translate(-297.538 -97.639)" fill="#fff"/>
      <path id="a2804879-ded6-4045-b20f-1f1dde9b938b" d="M412.423,518.217h-84.2a1.561,1.561,0,0,1-1.559-1.559V495.772a1.561,1.561,0,0,1,1.559-1.559h84.2a1.561,1.561,0,0,1,1.559,1.559v20.886A1.561,1.561,0,0,1,412.423,518.217Zm-84.2-23.38a.936.936,0,0,0-.936.936v20.886a.936.936,0,0,0,.936.936h84.2a.936.936,0,0,0,.936-.936V495.772a.936.936,0,0,0-.936-.936Z" transform="translate(-314.213 -371.327)" fill="#e6e6e6"/>
      <circle id="b9ad11c9-d8a0-4df6-8741-900b9ec46a35" cx="6.549" cy="6.549" r="6.549" transform="translate(18.377 128.34)" fill="#e6e6e6"/>
      <path id="bd261eec-7ae0-49b0-bf26-57ff03972605" d="M415.784,519.573a1.091,1.091,0,1,0,0,2.183h51.454a1.092,1.092,0,0,0,.042-2.183h-51.5Z" transform="translate(-375.734 -389.05)" fill="#e6e6e6"/>
      <path id="e80b4447-8c34-435b-ba6c-5300a190ab24" d="M415.784,541.32a1.092,1.092,0,0,0,0,2.183h51.454a1.092,1.092,0,1,0,.036-2.183h-51.49Z" transform="translate(-375.734 -404.249)" fill="#e6e6e6"/>
      <path id="e55fcb7d-3a3b-45d8-b167-72fb2263dd92" d="M412.423,634.207h-84.2a1.561,1.561,0,0,1-1.559-1.559V611.762a1.561,1.561,0,0,1,1.559-1.559h84.2a1.561,1.561,0,0,1,1.559,1.559v20.886a1.561,1.561,0,0,1-1.559,1.559Zm-84.2-23.381a.936.936,0,0,0-.936.935v20.886a.936.936,0,0,0,.936.936h84.2a.936.936,0,0,0,.936-.936V611.762a.936.936,0,0,0-.936-.935Z" transform="translate(-314.213 -452.39)" fill="#e6e6e6"/>
      <circle id="a50d232f-7710-43e4-8fa9-6ef0443fc454" cx="6.549" cy="6.549" r="6.549" transform="translate(18.377 163.266)" fill="#e6e6e6"/>
      <path id="e49b4965-a9e9-4371-9134-194e44e65c31" d="M415.784,635.563a1.091,1.091,0,1,0,0,2.183h51.454a1.092,1.092,0,1,0,.036-2.183h-51.49Z" transform="translate(-375.734 -470.113)" fill="#e6e6e6"/>
      <path id="abc4586a-ac92-4255-aae6-84f53baad571" d="M415.784,657.311a1.091,1.091,0,1,0,0,2.183h51.454a1.092,1.092,0,1,0,.036-2.183h-51.49Z" transform="translate(-375.734 -485.313)" fill="#e6e6e6"/>
      <circle id="Ellipse_135" data-name="Ellipse 135" cx="12.045" cy="12.045" r="12.045" transform="translate(82.841 115.28)" fill="#fff"/>
      <path id="Path_760" data-name="Path 760" d="M564.093,512.415h-6.536a3.131,3.131,0,1,1,0-6.261h6.58a3.131,3.131,0,1,1-.042,6.262Z" transform="translate(-473.39 -379.671)" fill="#f48a36"/>
      <rect id="Rectangle_132" data-name="Rectangle 132" width="97.572" height="0.675" transform="translate(97.967 218.413)" fill="#3f3d56"/>
      <path id="Path_761" data-name="Path 761" d="M626.285,575.093a1.973,1.973,0,0,1-.19-.379l-1.555-4.163a1.959,1.959,0,0,1,1.149-2.518l34.7-12.958a1.959,1.959,0,0,1,2.518,1.149l1.555,4.164a1.957,1.957,0,0,1-1.149,2.518l-34.7,12.958A1.959,1.959,0,0,1,626.285,575.093Z" transform="translate(-522.307 -413.775)" fill="#f48a36"/>
      <path id="Path_762" data-name="Path 762" d="M707.78,551.523l-14.111,5.627a1.807,1.807,0,0,0-1.233,2.168l1.638,6.557a1.806,1.806,0,0,0,2.522,1.2l14.15-6.66a1.81,1.81,0,0,0,1.061-2.324l-1.7-5.5A1.81,1.81,0,0,0,707.78,551.523Z" transform="translate(-569.806 -411.3)" fill="#191919"/>
      <path id="Path_763" data-name="Path 763" d="M796.179,593.756a1.959,1.959,0,0,1-2.075-1.307l-12.079-35.017a1.957,1.957,0,0,1,1.212-2.489l4.2-1.449a1.959,1.959,0,0,1,2.488,1.212l12.079,35.017a1.96,1.96,0,0,1-1.212,2.489l-4.2,1.449A1.97,1.97,0,0,1,796.179,593.756Z" transform="translate(-632.381 -412.683)" fill="#f48a36"/>
      <path id="Path_764" data-name="Path 764" d="M790.981,552.95l4.636,14.467a1.807,1.807,0,0,1-.889,2.33l-6.1,2.908a1.807,1.807,0,0,1-2.528-1.185l-3.864-15.155a1.81,1.81,0,0,1,1.118-2.3l5.328-2.189A1.81,1.81,0,0,1,790.981,552.95Z" transform="translate(-632.535 -411.525)" fill="#191919"/>
      <path id="Path_765" data-name="Path 765" d="M750.033,717.056h-4.444a1.959,1.959,0,0,1-1.957-1.957V678.057a1.96,1.96,0,0,1,1.957-1.957h4.444a1.959,1.959,0,0,1,1.957,1.957V715.1a1.96,1.96,0,0,1-1.957,1.957Z" transform="translate(-605.624 -498.444)" fill="#191919"/>
      <path id="Path_766" data-name="Path 766" d="M779.225,717.056H774.78a1.959,1.959,0,0,1-1.957-1.957V678.057a1.959,1.959,0,0,1,1.957-1.957h4.445a1.96,1.96,0,0,1,1.957,1.957V715.1a1.96,1.96,0,0,1-1.957,1.957Z" transform="translate(-626.025 -498.444)" fill="#191919"/>
      <path id="Path_767" data-name="Path 767" d="M754.486,587.7H734.292a2.11,2.11,0,0,1-2.108-2.108v-32.8a12.2,12.2,0,1,1,24.409,0v32.8A2.11,2.11,0,0,1,754.486,587.7Z" transform="translate(-597.623 -403.736)" fill="#ccc"/>
      <path id="Path_768" data-name="Path 768" d="M792.579,589.417H782.341V531.556l.19.052a13.665,13.665,0,0,1,10.048,13.155Z" transform="translate(-632.677 -397.425)" fill="#191919"/>
      <path id="Path_769" data-name="Path 769" d="M736.564,589.417H726.326V544.763a13.666,13.666,0,0,1,10.048-13.155l.19-.052Z" transform="translate(-593.529 -397.425)" fill="#191919"/>
      <ellipse id="Ellipse_136" data-name="Ellipse 136" cx="14.268" cy="16.116" rx="14.268" ry="16.116" transform="translate(132.345 97.833)" fill="#f48a36"/>
      <path id="Path_770" data-name="Path 770" d="M742.21,395.81s.9-24.993-10.84-16.862c0,0-6.775-22.734-23.336,11.292l-4.818,4.818s21.68-3.011,41.855,6.323Z" transform="translate(-577.377 -285.572)" fill="#191919"/>
      <path id="Path_771" data-name="Path 771" d="M763.378,467.242a5.54,5.54,0,0,1-3.189-.759,2.449,2.449,0,0,1-.964-1.829,1.647,1.647,0,0,1,.56-1.353,2.126,2.126,0,0,1,2.011-.289l-.813-5.94.6-.082.956,6.983-.5-.229a1.823,1.823,0,0,0-1.863.017,1.059,1.059,0,0,0-.347.872,1.851,1.851,0,0,0,.717,1.363,4.981,4.981,0,0,0,2.85.644Z" transform="translate(-616.519 -345.312)" fill="#2f2e41"/>
      <rect id="Rectangle_133" data-name="Rectangle 133" width="3.244" height="0.602" transform="translate(138.27 112.272)" fill="#2f2e41"/>
      <rect id="Rectangle_134" data-name="Rectangle 134" width="3.244" height="0.602" transform="translate(148.508 112.272)" fill="#2f2e41"/>
      <path id="Path_772" data-name="Path 772" d="M622.8,566.96a1.807,1.807,0,0,1-2.4-.879l-10.392-22.4a1.807,1.807,0,1,1,3.278-1.521l10.392,22.4A1.807,1.807,0,0,1,622.8,566.96Z" transform="translate(-512.122 -404.106)" fill="#191919"/>
      <path id="Path_773" data-name="Path 773" d="M576.89,502.909a1.2,1.2,0,0,1-1.2-1.2V486.362H560.629a1.2,1.2,0,0,1,0-2.409h16.26a1.2,1.2,0,0,1,1.2,1.2V501.7A1.2,1.2,0,0,1,576.89,502.909Z" transform="translate(-476.885 -364.156)" fill="#f48a36"/>
      <path id="Path_774" data-name="Path 774" d="M570.7,488.575a14.454,14.454,0,1,1,7.028-19.194A14.453,14.453,0,0,1,570.7,488.575ZM560.053,465.63a10.84,10.84,0,1,0,14.4,5.271A10.84,10.84,0,0,0,560.053,465.63Z" transform="translate(-470.408 -348.119)" fill="#191919"/>
      <g id="Rectangle_135" data-name="Rectangle 135" transform="translate(12.769 44.146)" fill="#fff" stroke="#e5e5e5" stroke-width="1">
        <rect width="83" height="52" rx="5" stroke="none"/>
        <rect x="0.5" y="0.5" width="82" height="51" rx="4.5" fill="none"/>
      </g>
    </g>
  </g>
</svg>
