<svg xmlns="http://www.w3.org/2000/svg" xmlns:xlink="http://www.w3.org/1999/xlink" width="277.979" height="167.242" viewBox="0 0 277.979 167.242">
  <defs>
    <linearGradient id="linear-gradient" x1="0.5" y1="1" x2="0.5" gradientUnits="objectBoundingBox">
      <stop offset="0" stop-color="gray" stop-opacity="0.251"/>
      <stop offset="0.54" stop-color="gray" stop-opacity="0.122"/>
      <stop offset="1" stop-color="gray" stop-opacity="0.102"/>
    </linearGradient>
    <linearGradient id="linear-gradient-2" x1="0" y1="0.5" x2="1" y2="0.5" xlink:href="#linear-gradient"/>
  </defs>
  <g id="Group_597" data-name="Group 597" transform="translate(-68 -271.463)">
    <g id="Group_543" data-name="Group 543" transform="translate(-5 -17)">
      <path id="Path_735" data-name="Path 735" d="M743.919,421.122l-.3-.877c15.849-5.359,25.761-13.99,28.666-24.963,3.693-13.949-4.33-30.137-22.59-45.58-18.353-15.522-44.82-28.4-74.524-36.265l.237-.9c29.834,7.9,56.429,20.844,74.885,36.453,18.549,15.687,26.677,32.21,22.888,46.524C770.2,406.806,760.076,415.659,743.919,421.122Z" transform="translate(-438.253 31.889)" fill="#f0f0f0"/>
      <path id="Path_738" data-name="Path 738" d="M581.6,276.868c-5.755-1.874-11.675-3.618-17.594-5.186-34.065-9.018-67.552-12.22-96.841-9.258l-.093-.921c29.4-2.972,63,.238,97.171,9.284,5.936,1.572,11.873,3.321,17.644,5.2Z" transform="translate(-319.238 61.693)" fill="#f0f0f0"/>
      <path id="Path_744" data-name="Path 744" d="M530.765,280.112c-5.755-1.874-11.675-3.618-17.594-5.186-34.065-9.018-67.552-12.22-96.841-9.258l-.093-.921c29.4-2.972,63,.238,97.171,9.284,5.936,1.572,11.873,3.321,17.644,5.2Z" transform="translate(-290.167 59.838)" fill="#f0f0f0"/>
      <circle id="Ellipse_130" data-name="Ellipse 130" cx="3.704" cy="3.704" r="3.704" transform="translate(76.375 448.296)" fill="#191919"/>
      <circle id="Ellipse_131" data-name="Ellipse 131" cx="3.704" cy="3.704" r="3.704" transform="translate(331.03 418.201)" fill="#191919"/>
      <circle id="Ellipse_139" data-name="Ellipse 139" cx="3.704" cy="3.704" r="3.704" transform="translate(107.03 349.201)" fill="#191919"/>
    </g>
    <g id="Group_559" data-name="Group 559" transform="translate(68.02 271.462)">
      <path id="Path_832" data-name="Path 832" d="M195.907,264.968c5.37-.306,12.033-3.949,17.213-5.559q9.2-2.853,18.467-5.489,32.271-9.182,65.234-15.648,3.076-.605,6.162-1.181a43.618,43.618,0,0,0-14.4-17.293,44.238,44.238,0,0,0,.243-4.563c0-24.089-19.252-43.618-43.008-43.618a42.323,42.323,0,0,0-20.872,5.479c-16.815-11.061-38.761-17.755-62.773-17.755-34.12,0-64.073,13.517-81.045,33.872L160.9,206.688l48.922,8.261c-55.772,1.664-111.717,3.319-167.329-.588A44.082,44.082,0,0,0,36.142,270h0c0,.872.036,1.737.1,2.6,1.417.406,2.785.8,4.012,1.057q29.549,6.242,59.478,10.448c-14.7,9.066-32.608,10.349-49.569,14.188a49.7,49.7,0,0,0,31.656,10.934h183c19.815,0,35.877-13.794,35.877-30.813h0a43.783,43.783,0,0,0,5.832-16.01C269.859,265.944,232.736,262.871,195.907,264.968Z" transform="translate(-28.817 -150.689)" fill="#6c63ff" opacity="0.1"/>
      <path id="Path_833" data-name="Path 833" d="M305.959,253.718A43.737,43.737,0,0,0,287.492,217.9a44.879,44.879,0,0,0,.243-4.561c0-24.089-19.261-43.611-43.008-43.611a42.347,42.347,0,0,0-20.875,5.477c-16.815-11.065-38.763-17.762-62.775-17.762-39.057,0-72.677,17.726-87.586,43.144-.829-.049-1.662-.075-2.5-.075-23.749,0-43.008,19.529-43.008,43.618A43.866,43.866,0,0,0,35.055,268.1h0c0,21.674,20.457,39.244,45.681,39.244h183c19.813,0,35.874-13.8,35.874-30.815h0A43.863,43.863,0,0,0,305.959,253.718Z" transform="translate(-28 -149.251)" fill="#f48a36" opacity="0.1"/>
      <path id="Path_834" data-name="Path 834" d="M769.6,279.09a2.707,2.707,0,0,0-1.186-.52c-.454-.1-.918-.17-1.38-.243l-5.982-.863a7.045,7.045,0,0,0-1.832-.1,2.326,2.326,0,0,0-1.594.826,1.242,1.242,0,0,0-.277.778,2.051,2.051,0,0,0,.272.807,2.708,2.708,0,0,1,.148.357,8.189,8.189,0,0,0,.214.814.689.689,0,0,0,.1.16.259.259,0,0,1,0,.041c-.066.335.146.685.051,1.008-.083.277-.352.445-.522.675a1.016,1.016,0,0,0-.024,1.12c.182.282.513.474.607.8.124.425-.211.836-.51,1.164a18.041,18.041,0,0,0-1.521,1.917,1.188,1.188,0,0,0-.243.571c-.027.423.379.795.309,1.215-.056.33-.379.532-.658.729a4.1,4.1,0,0,0-1.944,3.011,10.546,10.546,0,0,0-2.352-5.346,3.823,3.823,0,0,1-.872-1.368c-.053-.211-.063-.437-.136-.641-.243-.644-1.016-.921-1.353-1.514-.243-.418-.243-.955-.544-1.322s-.775-.45-1.035-.8a5.138,5.138,0,0,1-.33-.748,1.637,1.637,0,0,0-.45-.539,1.312,1.312,0,0,0-.112-.08.386.386,0,0,0,.129-.287c0-.284-.282-.471-.527-.612-.316-.18-.625-.374-.926-.576a2.165,2.165,0,0,0,.828-.678,2.229,2.229,0,0,0,.316-1.458,1.839,1.839,0,0,0-.435-1.115c-.153-.163-.345-.279-.505-.432a3.546,3.546,0,0,1-.729-1.56,3.174,3.174,0,0,0-1.251-1.881c-.321-.187-.7-.275-1.008-.471a.88.88,0,0,1-.467-.926c.073-.243.3-.411.452-.617a1.23,1.23,0,0,0-.309-1.7c-.18-.114-.4-.214-.437-.423a.773.773,0,0,1-.564-.6,2.3,2.3,0,0,1,0-.865q.095-.678.187-1.351a.88.88,0,0,0,.675,0,5.95,5.95,0,0,0,.729.953,9.516,9.516,0,0,1,1.7,2.952,1.778,1.778,0,0,0,.639,1.03c.124.07.265.107.386.182a1.443,1.443,0,0,1,.379.389c.292.386.583.77.872,1.157l.015.058a.341.341,0,0,0,.039.1.323.323,0,0,0,.209.107,3.541,3.541,0,0,0,2.673-.092c.7-.437,1.006-1.3,1.6-1.881.42-.411,1.016-.729,1.135-1.307a4.312,4.312,0,0,1-.418-.153c.121-.121.243-.262.408-.423a5.146,5.146,0,0,0,.646-.77,4.967,4.967,0,0,0,.486-1.089q.7-2,1.409-4.007c.224-.632.447-1.268.729-1.883.292-.666.637-1.3.955-1.958a26,26,0,0,0,1.89-5.321,1.944,1.944,0,0,0,.075-.775,2.044,2.044,0,0,0-.69-1.05,5.066,5.066,0,0,0-1.035-.858,1.7,1.7,0,0,0-1.3-.209,1.875,1.875,0,0,0-1.157,1.458,15.29,15.29,0,0,0-.151,1.944c-.088.935-.408,1.839-.486,2.777-.041.542,0,1.091-.066,1.633a5.958,5.958,0,0,1-.729,2.012,13.023,13.023,0,0,1-3.142,3.873c-.148.124-.3.243-.447.377a2.327,2.327,0,0,1,.032-.316,1.907,1.907,0,0,0-.309.109.925.925,0,0,0-.036-.364c-.194-.581-1.059-.729-1.215-1.319a2.7,2.7,0,0,1-.041-.442,11.261,11.261,0,0,0-.525-1.458,6.225,6.225,0,0,0-.243-1.4,3.918,3.918,0,0,0-.646-.729,2.86,2.86,0,0,1-.615-1.159c-.032-.119-.061-.243-.095-.362a1.657,1.657,0,0,0-.088-.8c-.221-.549-.792-.9-1-1.458-.16-.433-.09-.972-.394-1.307a1.421,1.421,0,0,0-.576-.347,12.814,12.814,0,0,0-3.467-.819,2.952,2.952,0,0,1-1.876-.564c-.556-.544-.583-1.524-1.234-1.944a1.474,1.474,0,0,0-1.83.425,2.315,2.315,0,0,0-.185.243,2.6,2.6,0,0,1-.051-1c0-.083.017-.168.024-.243a4.859,4.859,0,0,0,2.634-2.08v.015l.029.075c.07.177.182.347.347.367h0a.486.486,0,0,0,.3-.109,2.5,2.5,0,0,0,.4-.35q.092-.1.175-.211a2.746,2.746,0,0,0,.287-.486,2.886,2.886,0,0,0,.243-.814c.044-.282.049-.571.1-.853a5.258,5.258,0,0,1,.177-.644c.024-.07.049-.141.07-.211s.053-.165.078-.243a5.627,5.627,0,0,0,.243-1.541v-.262a2.563,2.563,0,0,0-.816-1.81c-.418-.343-.972-.486-1.278-.95a4.521,4.521,0,0,1-.36-1.076,2.43,2.43,0,0,0-1.91-1.718,2.126,2.126,0,0,0-1.511.415h0l-.034.027h0a2.429,2.429,0,0,0-.6.671,2,2,0,0,1-.855-.486c-.243-.226-.43-.51-.675-.729a1.737,1.737,0,0,0-1.73-.364,2.068,2.068,0,0,0-1.237,1.417,4.938,4.938,0,0,1-.389,1.494c-.216.326-.571.486-.819.782a1.472,1.472,0,0,0-.306.649h0a1.761,1.761,0,0,0-.041.406h0a.739.739,0,0,0,.015.18V241a1.289,1.289,0,0,0,.041.2h0a1.7,1.7,0,0,0,.362.666,1.6,1.6,0,0,0,.586.423,2.373,2.373,0,0,0,.282.09l.289.066.1.024a4.845,4.845,0,0,0-.136,4.279,1.938,1.938,0,0,1-.024.2,16.8,16.8,0,0,0,.126,2.865,1.538,1.538,0,0,1-.177,1.091,2.068,2.068,0,0,1-.352.313c.131-.17.265-.338.4-.505a1.733,1.733,0,0,0-1.37-.355,6.35,6.35,0,0,0-2.673.816,2.992,2.992,0,0,1-1.725.656c-.367-.041-.729-.243-1.086-.146a2.2,2.2,0,0,0-.556.33.753.753,0,0,1-.457.141,9.861,9.861,0,0,0-1.429-1.169,11.261,11.261,0,0,1-1.421-1.524c-.787-.95-1.572-1.9-2.345-2.862a5.513,5.513,0,0,1-1.434-2.712,2.66,2.66,0,0,1-.017-.309,7.844,7.844,0,0,1,.185-1.458.729.729,0,0,0,0-.352c-.073-.243-.352-.333-.593-.386h0c.032-.187.053-.379.066-.561a42.6,42.6,0,0,1,.43-6.259,4.255,4.255,0,0,1,1.008-2.155c.887-.9,2.372-1.113,3.052-2.175a2.48,2.48,0,0,0-.372-2.916,3.68,3.68,0,0,0-2.862-1.059,1.477,1.477,0,0,0-.833.224,1.771,1.771,0,0,0-.505.768l-1.042,2.534a15.342,15.342,0,0,0-.763,2.036c-.292,1.064-.357,2.187-.588,3.261a8.48,8.48,0,0,1-.824,2.617c-.326.855-.678,1.7-.972,2.573-.073.219-.328.867-.486,1.458a.889.889,0,0,0-.165.124,4.4,4.4,0,0,0-.345.513c-.221.292-.581.447-.824.729s-.294.8.044.94a.994.994,0,0,0,.211.046.69.69,0,0,1,.586.962c-.053.379-.243.729-.275,1.108a2.99,2.99,0,0,0,.707,1.859,16.024,16.024,0,0,0,1.3,1.747c.343.384.729.729,1.074,1.1,1.315,1.351,2.359,2.93,3.54,4.4a9.752,9.752,0,0,0,1.441,1.511,10.842,10.842,0,0,0,1.091.751l2.031,1.288a2.226,2.226,0,0,0,.768.362,1.021,1.021,0,0,0,.272,0c.012.061.022.119.036.18a10.7,10.7,0,0,1,.544,1.864c.039.649-.019,1.312.027,1.968.044.605.177,1.215.211,1.81a11.633,11.633,0,0,1-.486,3.4,20.283,20.283,0,0,1-1.458,4.809,2.828,2.828,0,0,0-.486,1.3.671.671,0,0,0,.015.17h0l-.364.207c-.107.061-.214.121-.311.185a2.6,2.6,0,0,0-1.144,1.154c-.153.42-.083.9-.267,1.31a.588.588,0,0,1-.029.053c-.194.379-.581.661-.668,1.076h0c-.066.318.061.656,0,.972v.012a3.512,3.512,0,0,0-.131.486.58.58,0,0,0,.015.16.926.926,0,0,0,.292.474,1.948,1.948,0,0,0,.284.226q.156.1.321.19l.063.034c.092.049.185.095.279.138l.063.027c.109.049.221.092.333.131l.078.024c.087.029.177.056.267.078l.061.019.056.012.243.051.09.017q.16.027.328.044h.1c.083,0,.163.012.243.015h.445a2.719,2.719,0,0,0,.343-.032h.036c.1-.015.2-.032.306-.053l.078-.017c.095-.022.19-.044.284-.073l.051-.015c.114-.034.228-.07.34-.114a8.927,8.927,0,0,0,1.123-.556c.243-.134.486-.27.729-.394a5.66,5.66,0,0,1,.554-.243,3.127,3.127,0,0,1,1.458-.243,5.7,5.7,0,0,1,.729.148q0,.04,0,.08.3,1.749.586,3.5a7.133,7.133,0,0,1,1.006-.605,2.236,2.236,0,0,0-.129.547,2.162,2.162,0,0,0,0,.435.944.944,0,0,1-.068.668c-.085.112-.243.175-.289.3a1.028,1.028,0,0,0-.024.4.632.632,0,0,1-.578.588.923.923,0,0,1-.367,1.084,1.284,1.284,0,0,0-.282.185.84.84,0,0,0-.163.367,6.493,6.493,0,0,1-1.9,3.127,6.115,6.115,0,0,0-.94.918,4.18,4.18,0,0,0-.425.838q-.972,2.376-1.973,4.755a10.553,10.553,0,0,0-.846,2.743c-.292,2.619-2.624,4.84-2.187,7.44a3.644,3.644,0,0,0,.758,1.776,4.472,4.472,0,0,0,1.944,1.193,35.389,35.389,0,0,0,5.817,1.528l3.091.634a13.51,13.51,0,0,0,1.842.292,12.053,12.053,0,0,1,2.238.17,6.949,6.949,0,0,0,1.344.357c.4.022.889-.063,1.125.262s.053.756.277,1.045c.36.459,1.237,0,1.628.432a2.016,2.016,0,0,1,.243.537.971.971,0,0,0,.243.306,2.051,2.051,0,0,1,.029.416,7.164,7.164,0,0,1-.35,1.657q-.437,1.48-.872,2.962a6.551,6.551,0,0,0-.243,1.069,2.561,2.561,0,0,0,0,.53,1.455,1.455,0,0,0,.872,1.266,1.6,1.6,0,0,0,1.181-.146,5.22,5.22,0,0,0,.972-.656,6.638,6.638,0,0,0,1.4-1.443c1.215-1.818.821-4.277,1.674-6.286.566-1.341,1.669-2.43,2.036-3.844a1.538,1.538,0,0,0,.029-.831,1.722,1.722,0,0,0-1.154-.938h-.022a9.955,9.955,0,0,0-1.215-.347c-.1-.022-.206-.039-.311-.056a1.908,1.908,0,0,1-.537-.7,1.631,1.631,0,0,0-.114-.42.437.437,0,0,0-.35-.194c-.243-.024-.569.063-.833.044-.542-.039-.9-.571-1.387-.816a2.833,2.833,0,0,0-1.531-.148,1.417,1.417,0,0,1-.554-.034,2.083,2.083,0,0,1-.583-.4,2.444,2.444,0,0,0-2.141-.43,2.334,2.334,0,0,1-.729.165c-.474-.027-.809-.449-1.159-.77-.957-.877-2.321-1.108-3.482-1.684a.794.794,0,0,1-.418-.36c-.134-.33.168-.661.44-.887l2-1.66c2.187-1.818,4.92-3.186,5.936-5.851a3.384,3.384,0,0,1,.486-1,1.356,1.356,0,0,1,.27-.243,2.041,2.041,0,0,1,1.494-.292,5.047,5.047,0,0,1,1.759.768q1.3.79,2.539,1.7a22.459,22.459,0,0,1,2.321,1.9c1.276,1.215,2.338,2.656,3.526,3.965a11.326,11.326,0,0,0,4.2,3.159,5.4,5.4,0,0,0,5.061-.452c1.635-1.215,2.16-3.387,2.573-5.38.911-.88,1.186-2.218,1.63-3.4.279-.751.637-1.458.938-2.206.36-.88.641-1.788.923-2.695a12.961,12.961,0,0,0,.646-2.811c.117-1.514-.289-3.125.136-4.546a16.769,16.769,0,0,0,1.623-.624,8.041,8.041,0,0,1,2.571-.221h.056a1.327,1.327,0,0,0,.855-.2,1.362,1.362,0,0,0,.352-1.035A3.159,3.159,0,0,0,769.6,279.09Zm-35.206-41.448a1.8,1.8,0,0,1-.615.044Z" transform="translate(-542.6 -201.347)" fill="url(#linear-gradient)"/>
      <path id="Path_835" data-name="Path 835" d="M793.285,314.354a2.672,2.672,0,0,1-1.011.537l-1.723.617a6.418,6.418,0,0,1-2.9.552c-.552-.068-2.916-.415-3.273-.846-.544-.666,1.363-1.645,2.014-2.206a2.759,2.759,0,0,0,.408-.36,1.465,1.465,0,0,0,.177-1.086,16.764,16.764,0,0,1-.126-2.86,5.768,5.768,0,0,1,.1-.678c.243-1.118,1.283-.71,2.1-.413a16.458,16.458,0,0,1,2.855,1.237,2.048,2.048,0,0,1,.7.6,3.038,3.038,0,0,1,.158,1.944,1.821,1.821,0,0,0,.284,1.429,3.676,3.676,0,0,1,.459.486A.911.911,0,0,1,793.285,314.354Z" transform="translate(-600.534 -262.688)" fill="#be6f72"/>
      <path id="Path_836" data-name="Path 836" d="M715.917,236.962c.243-1.076.3-2.187.588-3.254a15.239,15.239,0,0,1,.763-2.029l1.072-2.5a1.764,1.764,0,0,1,.505-.765,1.5,1.5,0,0,1,.833-.224,3.713,3.713,0,0,1,2.862,1.057,2.454,2.454,0,0,1,.372,2.9c-.68,1.062-2.165,1.276-3.052,2.17a4.249,4.249,0,0,0-1.008,2.15,42.369,42.369,0,0,0-.43,6.242,2.07,2.07,0,0,1-.729,1.725,2.126,2.126,0,0,1-1.089.211l-1.594.027c-.267,0-1.237.168-1.414-.034-.311-.352.4-2.107.527-2.5.287-.867.639-1.713.972-2.566A8.532,8.532,0,0,0,715.917,236.962Z" transform="translate(-546.964 -202.808)" fill="#be6f72"/>
      <path id="Path_837" data-name="Path 837" d="M833.445,571.633c-.367,1.4-1.47,2.5-2.036,3.837-.853,2-.469,4.456-1.674,6.269a6.621,6.621,0,0,1-1.4,1.446,5.207,5.207,0,0,1-.972.654,1.6,1.6,0,0,1-1.181.146,1.454,1.454,0,0,1-.872-1.263,2.546,2.546,0,0,1,0-.527,6.535,6.535,0,0,1,.243-1.067q.437-1.475.872-2.955a7.146,7.146,0,0,0,.35-1.652c.032-.612-.357-1.409-.192-1.98.075-.258.357-.486.486-.7a4.066,4.066,0,0,0,.418-.994,6.177,6.177,0,0,1,.753-1.973,4.629,4.629,0,0,1,.948-.887,2.512,2.512,0,0,1,.9-.508,2.213,2.213,0,0,1,.972.046,9.533,9.533,0,0,1,1.215.345h.022a1.7,1.7,0,0,1,1.154.935A1.529,1.529,0,0,1,833.445,571.633Z" transform="translate(-631.579 -461.143)" fill="#3f3d56"/>
      <path id="Path_838" data-name="Path 838" d="M924.808,442.138a1.347,1.347,0,0,1-.352,1.033,1.327,1.327,0,0,1-.855.2h-.066a8.19,8.19,0,0,0-2.571.221,9.719,9.719,0,0,1-1.849.661,4.512,4.512,0,0,1-2.534-.816,25.206,25.206,0,0,0-2.3-1.093c-.515-.211-1.567-.347-1.815-.911a8.306,8.306,0,0,1-.214-.812,2.7,2.7,0,0,0-.148-.357,2.054,2.054,0,0,1-.272-.8,1.242,1.242,0,0,1,.277-.778,2.331,2.331,0,0,1,1.592-.819,7.047,7.047,0,0,1,1.832.1l5.982.86c.462.066.926.131,1.38.243a2.706,2.706,0,0,1,1.186.52A3.071,3.071,0,0,1,924.808,442.138Z" transform="translate(-697.089 -361.52)" fill="#3f3d56"/>
      <path id="Path_839" data-name="Path 839" d="M794.372,450.215c-.729,1.538-.2,3.358-.335,5.059a12.9,12.9,0,0,1-.646,2.8c-.282.9-.564,1.81-.923,2.687-.3.729-.659,1.458-.938,2.2a8.833,8.833,0,0,1-1.63,3.4c-.413,1.988-.938,4.16-2.573,5.365a5.386,5.386,0,0,1-5.061.452,11.325,11.325,0,0,1-4.2-3.159c-1.188-1.31-2.25-2.736-3.526-3.956a22.1,22.1,0,0,0-2.325-1.9q-1.234-.9-2.539-1.686a5.086,5.086,0,0,0-1.759-.765,2.041,2.041,0,0,0-1.494.292,1.356,1.356,0,0,0-.27.243,3.343,3.343,0,0,0-.486,1c-1.021,2.658-3.759,4.024-5.946,5.836l-2,1.655c-.272.226-.573.556-.44.884a.794.794,0,0,0,.418.36c1.161.573,2.525.8,3.482,1.679.35.321.685.743,1.159.768a2.329,2.329,0,0,0,.729-.163,2.452,2.452,0,0,1,2.141.428,2.081,2.081,0,0,0,.583.4,1.416,1.416,0,0,0,.554.034,2.958,2.958,0,0,1,1.531.148c.464.231.846.775,1.387.814.265.019.581-.068.833-.044a.437.437,0,0,1,.35.194,1.61,1.61,0,0,1,.114.418c.1.343.435.552.654.833a2.3,2.3,0,0,1,.35,1.567,6.687,6.687,0,0,1-2.129,4.476,2.634,2.634,0,0,1-1.31.729,1.215,1.215,0,0,1-1.3-.576,2,2,0,0,0-.243-.535c-.391-.43-1.268.027-1.628-.432-.224-.287-.063-.746-.277-1.042s-.729-.243-1.125-.26a7.128,7.128,0,0,1-1.344-.357,12.066,12.066,0,0,0-2.238-.17,13.51,13.51,0,0,1-1.842-.292l-3.091-.632a36.636,36.636,0,0,1-5.817-1.524,4.681,4.681,0,0,1-1.944-1.191,3.645,3.645,0,0,1-.758-1.774c-.44-2.593,1.893-4.809,2.187-7.421a10.412,10.412,0,0,1,.846-2.736q.989-2.371,1.973-4.745a4.227,4.227,0,0,1,.413-.841,6.1,6.1,0,0,1,.94-.916,6.471,6.471,0,0,0,1.9-3.12.842.842,0,0,1,.163-.367,1.368,1.368,0,0,1,.282-.182.923.923,0,0,0,.367-1.081.632.632,0,0,0,.578-.588,1.015,1.015,0,0,1,.024-.394c.058-.126.2-.19.289-.3a.939.939,0,0,0,.068-.666,2.167,2.167,0,0,1,0-.435,2.233,2.233,0,0,1,.651-1.358c.581-.571,1.407-.423,2.209-.559a12.65,12.65,0,0,0,2.333-.746,22.914,22.914,0,0,1,6.587-1.524,14.382,14.382,0,0,1,6.653,1.059,3.783,3.783,0,0,1,.858.486,1.625,1.625,0,0,1,.449.537,5.015,5.015,0,0,0,.331.746c.26.355.751.469,1.035.8s.309.9.544,1.317c.338.593,1.12.867,1.353,1.511.073.2.083.428.136.639a3.655,3.655,0,0,0,.872,1.366,10.5,10.5,0,0,1,2.352,5.346,4.066,4.066,0,0,1,1.944-3c.279-.182.6-.384.659-.714.07-.418-.335-.79-.309-1.215a1.19,1.19,0,0,1,.243-.569,17.98,17.98,0,0,1,1.521-1.912c.3-.328.634-.729.51-1.161-.095-.323-.425-.513-.607-.795a1.011,1.011,0,0,1,.024-1.118c.17-.231.44-.4.522-.673.095-.323-.117-.673-.051-1.006a1.245,1.245,0,0,1,.5-.649,3.061,3.061,0,0,1,3.122-.773c1.137.158,2.413.4,3.054,1.353A2.305,2.305,0,0,1,794.372,450.215Z" transform="translate(-571.911 -368.042)" fill="#65617d"/>
      <path id="Path_840" data-name="Path 840" d="M924.785,442.138a1.346,1.346,0,0,1-.352,1.033,1.327,1.327,0,0,1-.855.2h-.066c.1-.505.714-.795.821-1.307a1.157,1.157,0,0,0-.267-.882,4.38,4.38,0,0,0-2.187-1.375,14.487,14.487,0,0,0-7.3-.547,7.354,7.354,0,0,0-1.92.59,6.265,6.265,0,0,0-.583.413,2.054,2.054,0,0,1-.272-.8,1.242,1.242,0,0,1,.277-.778,2.33,2.33,0,0,1,1.592-.819,7.046,7.046,0,0,1,1.832.1l5.982.86c.462.066.926.131,1.38.243a2.706,2.706,0,0,1,1.186.52A3.051,3.051,0,0,1,924.785,442.138Z" transform="translate(-697.066 -361.52)" opacity="0.1"/>
      <path id="Path_841" data-name="Path 841" d="M833.445,572.979c-.367,1.4-1.47,2.5-2.036,3.837-.853,2-.469,4.456-1.674,6.269a6.623,6.623,0,0,1-1.4,1.446,5.21,5.21,0,0,1-.972.654,1.6,1.6,0,0,1-1.181.146,1.454,1.454,0,0,1-.872-1.264,2.546,2.546,0,0,1,0-.527l.015.039c.211.51.556,1.045,1.1,1.135a1.49,1.49,0,0,0,1.123-.4,6.939,6.939,0,0,0,1.713-2.529,10.524,10.524,0,0,0,.821-2.1c.1-.413.143-.836.243-1.249.462-2.007,2.034-3.645,2.381-5.679a1.386,1.386,0,0,0,.019-.425,2.151,2.151,0,0,0-.209-.53,2.629,2.629,0,0,1-.185-.588,1.7,1.7,0,0,1,1.154.935A1.529,1.529,0,0,1,833.445,572.979Z" transform="translate(-631.579 -462.489)" opacity="0.1"/>
      <path id="Path_842" data-name="Path 842" d="M796.03,519.873a3.521,3.521,0,0,1-1.1,1.5,5.347,5.347,0,0,1-2.359,1.021,2.347,2.347,0,0,1-1.215-.015c-.539-.187-.928-.693-1.48-.838a10.128,10.128,0,0,0-1.215-.07,4.311,4.311,0,0,1-1.852-1.084c-1.771-1.332-4.1-1.762-5.868-3.093a.544.544,0,0,1-.19-.2.585.585,0,0,1-.036-.275,5.587,5.587,0,0,1,.532-2.335,8.145,8.145,0,0,1,1-1.426,43.271,43.271,0,0,1,5.081-5.542,7.7,7.7,0,0,1,2.673-1.64,4.006,4.006,0,0,1,2.342-.044,1.357,1.357,0,0,0-.27.243,3.343,3.343,0,0,0-.486,1c-1.023,2.661-3.761,4.026-5.948,5.839l-2,1.655c-.272.226-.573.556-.44.884a.794.794,0,0,0,.418.36c1.161.573,2.525.8,3.482,1.679.35.321.685.743,1.159.768a2.329,2.329,0,0,0,.729-.163,2.452,2.452,0,0,1,2.141.428,2.082,2.082,0,0,0,.583.4,1.418,1.418,0,0,0,.554.034,2.957,2.957,0,0,1,1.531.148c.464.231.846.775,1.387.814C795.461,519.936,795.777,519.844,796.03,519.873Z" transform="translate(-597.833 -412.867)" opacity="0.1"/>
      <path id="Path_843" data-name="Path 843" d="M744.771,400.715a2.579,2.579,0,0,0-1.142,1.147c-.156.42-.083.9-.27,1.31s-.607.693-.7,1.13c-.066.318.063.654,0,.972a4.174,4.174,0,0,0-.134.505c-.024.362.287.656.59.858a4.933,4.933,0,0,0,4.415.486,19.935,19.935,0,0,0,1.856-.95,3.672,3.672,0,0,1,2-.486c.4.044.785.19,1.186.243a1.244,1.244,0,0,0,1.11-.33,1.385,1.385,0,0,0,.243-.576,8.606,8.606,0,0,0-.136-4.089c-.321-1.341-.807-2.632-1.149-3.965a18.189,18.189,0,0,0-.836-2.938,3.854,3.854,0,0,0-2.043-2.163.381.381,0,0,0-.243-.032.414.414,0,0,0-.158.117,7.472,7.472,0,0,0-1.667,2.8c-.381,1.164-.486,2.4-.836,3.567a3.653,3.653,0,0,1-.729,1.509A8.328,8.328,0,0,1,744.771,400.715Z" transform="translate(-568.922 -326.688)" fill="#3f3d56"/>
      <path id="Path_844" data-name="Path 844" d="M753.949,404.962a1.417,1.417,0,0,1-.255.576,1.232,1.232,0,0,1-1.11.328c-.4-.049-.782-.2-1.183-.243a3.664,3.664,0,0,0-2,.486c-.622.311-1.215.7-1.859.948a4.907,4.907,0,0,1-2.947.168,4.755,4.755,0,0,1-1.458-.642,1.045,1.045,0,0,1-.591-.858,4.172,4.172,0,0,1,.134-.5c.063-.318-.063-.654,0-.972.092-.437.515-.729.7-1.132s.114-.887.267-1.307a2.59,2.59,0,0,1,1.144-1.149,8.73,8.73,0,0,0,1.38-.889,1.362,1.362,0,0,0,.129-.18,4.374,4.374,0,0,0,.578-1.339c.357-1.171.454-2.4.833-3.569a7.487,7.487,0,0,1,1.669-2.8.367.367,0,0,1,.156-.117.389.389,0,0,1,.243.029,3.882,3.882,0,0,1,2.044,2.165,19.126,19.126,0,0,1,.836,2.935c.34,1.334.829,2.629,1.149,3.968A8.646,8.646,0,0,1,753.949,404.962Z" transform="translate(-568.937 -326.633)" opacity="0.1"/>
      <path id="Path_845" data-name="Path 845" d="M800.779,311.405a4.86,4.86,0,0,1-5.919-2.673,5.769,5.769,0,0,1,.1-.678c.243-1.118,1.283-.71,2.1-.413a16.453,16.453,0,0,1,2.855,1.237,2.048,2.048,0,0,1,.7.6A2.993,2.993,0,0,1,800.779,311.405Z" transform="translate(-608.54 -262.711)" opacity="0.1"/>
      <circle id="Ellipse_140" data-name="Ellipse 140" cx="4.86" cy="4.86" r="4.86" transform="translate(185.911 38.96)" fill="#be6f72"/>
      <path id="Path_846" data-name="Path 846" d="M807.305,448.2c0,.4-.547.532-.952.51a30.772,30.772,0,0,0-4.328-.364c-1.825.165-3.5,1.174-5.331,1.266a16.151,16.151,0,0,0-2.116.061c-.9.168-1.7.714-2.617.792-.795.068-1.579-.231-2.374-.2a3.815,3.815,0,0,0-1.587.452,2.233,2.233,0,0,1,.651-1.358c.581-.571,1.407-.423,2.209-.559a12.655,12.655,0,0,0,2.333-.746,22.917,22.917,0,0,1,6.587-1.524,14.382,14.382,0,0,1,6.65,1.052,3.782,3.782,0,0,1,.858.486A.379.379,0,0,1,807.305,448.2Z" transform="translate(-603.347 -368.062)" opacity="0.1"/>
      <path id="Path_847" data-name="Path 847" d="M779.312,333.35l-1.968-.729-.831-.306a4.018,4.018,0,0,0-1.059-.282,2.7,2.7,0,0,0-2.357,1.37,7.4,7.4,0,0,0-.863,2.714q-.335,1.929-.569,3.873a25.3,25.3,0,0,0-.255,3.533,41.854,41.854,0,0,0,1.392,8.9,31.313,31.313,0,0,1,.775,3.948c.058.549.085,1.1.143,1.652.063.62.165,1.232.267,1.847l.586,3.492a4.616,4.616,0,0,1,2.454-1c.795-.029,1.582.267,2.374.2a27.117,27.117,0,0,0,2.617-.79,15.768,15.768,0,0,1,2.119-.061c1.827-.092,3.506-1.1,5.329-1.266a29.279,29.279,0,0,1,4.33.362c.4.024.95-.1.95-.51,0-.282-.282-.469-.527-.61a26,26,0,0,1-3.292-2.35,11.114,11.114,0,0,1-2.588-2.561c-1.587-2.466-1.042-5.8-2.4-8.4-1.1-2.114,0-4.884,0-7.268a11.055,11.055,0,0,0-.931-5.44l-.945-2.393a.392.392,0,0,0-.112-.182.372.372,0,0,0-.216-.066,2.279,2.279,0,0,0-1.57.5c-.445.362-.729.882-1.166,1.259A1.775,1.775,0,0,1,779.312,333.35Z" transform="translate(-590.788 -280.656)" fill="#e3e8f4"/>
      <path id="Path_848" data-name="Path 848" d="M809.43,327.217a4.313,4.313,0,0,1,.768-1.878,1.477,1.477,0,0,1,1.83-.423c.651.423.678,1.4,1.234,1.944a2.994,2.994,0,0,0,1.876.564,12.721,12.721,0,0,1,3.467.816,1.417,1.417,0,0,1,.576.345c.3.345.243.875.394,1.3.207.554.778.906,1,1.458a2.908,2.908,0,0,1-.2,1.927c-.367,1.13-.6,2.3-.955,3.438a7.654,7.654,0,0,1-1.7,3.108c-.369.379-.918.729-1.4.5l-.187,1.349a2.293,2.293,0,0,0,0,.863.773.773,0,0,0,.564.6c.036.209.258.309.437.423a1.215,1.215,0,0,1,.309,1.7c-.153.207-.379.369-.452.615a.873.873,0,0,0,.467.923c.316.194.688.284,1.008.471a3.136,3.136,0,0,1,1.251,1.873,3.473,3.473,0,0,0,.729,1.558c.16.153.352.27.505.43a1.844,1.844,0,0,1,.435,1.115,2.213,2.213,0,0,1-.316,1.458,4.4,4.4,0,0,1-2.187,1.215,18.424,18.424,0,0,0-3.489,2.284,3.722,3.722,0,0,1-1.592.748,13.94,13.94,0,0,1-2.354-.275,5.845,5.845,0,0,0-1.4.185l-1.458.316a9.451,9.451,0,0,0-.892-3.339,16.592,16.592,0,0,1-.622-6.318,49.468,49.468,0,0,1,1.016-6.3,40.181,40.181,0,0,1,.729-4.4,28.958,28.958,0,0,0,1.271-4.092C810.446,331.428,808.91,329.481,809.43,327.217Z" transform="translate(-617.731 -275.903)" fill="#3f3d56"/>
      <path id="Path_849" data-name="Path 849" d="M850.976,352.335a2.671,2.671,0,0,1,.279.79,2.851,2.851,0,0,0,.615,1.157,3.981,3.981,0,0,1,.646.729,5.448,5.448,0,0,1,.243,1.4,11.241,11.241,0,0,1,.525,1.458,2.673,2.673,0,0,0,.041.442c.158.588,1.023.729,1.215,1.317.129.382-.092.8-.051,1.2a1.053,1.053,0,0,1,.022.379.77.77,0,0,1-.277.355,5.589,5.589,0,0,0-1.6,2.845,16.208,16.208,0,0,0-.367,3.288l-.95-1.256a1.443,1.443,0,0,0-.379-.389c-.121-.073-.262-.109-.386-.182a1.758,1.758,0,0,1-.639-1.025,9.477,9.477,0,0,0-1.7-2.945,3.214,3.214,0,0,1-.921-1.5,2.767,2.767,0,0,1,.044-.812,13.839,13.839,0,0,1,1.278-4.634c.362-.661.831-1.259,1.178-1.929C850.026,352.573,850.354,351.417,850.976,352.335Z" transform="translate(-648.223 -296.529)" fill="#3f3d56"/>
      <path id="Path_850" data-name="Path 850" d="M721.374,306.5a1.11,1.11,0,0,1-.151.583.768.768,0,0,1-.768.243,2.22,2.22,0,0,1-.768-.36l-2.031-1.285a11.241,11.241,0,0,1-1.091-.748,9.738,9.738,0,0,1-1.441-1.509c-1.181-1.458-2.226-3.04-3.54-4.374-.357-.364-.729-.714-1.074-1.1a15.983,15.983,0,0,1-1.3-1.745,2.972,2.972,0,0,1-.707-1.854c.039-.379.221-.729.275-1.106a.689.689,0,0,0-.586-.96,1,1,0,0,1-.211-.046c-.338-.141-.287-.663-.044-.938s.6-.428.824-.729a4.395,4.395,0,0,1,.345-.513,1.315,1.315,0,0,1,.566-.284,8.762,8.762,0,0,1,4.313-.163c.243.053.52.151.593.386a.711.711,0,0,1,0,.35,7.828,7.828,0,0,0-.185,1.458,2.592,2.592,0,0,0,.017.306,5.5,5.5,0,0,0,1.434,2.707c.773.957,1.558,1.907,2.345,2.855a11.225,11.225,0,0,0,1.421,1.519,8.109,8.109,0,0,1,1.494,1.246,2.728,2.728,0,0,1,.243,1.492A33.127,33.127,0,0,1,721.374,306.5Z" transform="translate(-542.592 -249.162)" fill="#3f3d56"/>
      <path id="Path_851" data-name="Path 851" d="M878.236,345.677a5.1,5.1,0,0,0,.646-.765,5.045,5.045,0,0,0,.486-1.086l1.409-4c.224-.632.447-1.266.729-1.881.292-.663.637-1.3.955-1.944a25.918,25.918,0,0,0,1.888-5.285,1.959,1.959,0,0,0,.075-.775,2.037,2.037,0,0,0-.69-1.047,5.049,5.049,0,0,0-1.035-.855,1.7,1.7,0,0,0-1.3-.209,1.874,1.874,0,0,0-1.157,1.458,15.243,15.243,0,0,0-.151,1.944c-.087.933-.408,1.835-.486,2.77-.041.542,0,1.089-.066,1.628a5.946,5.946,0,0,1-.729,2.009,13.047,13.047,0,0,1-3.142,3.863,5.052,5.052,0,0,0-.943.906,2.956,2.956,0,0,0-.454,1.132,2.607,2.607,0,0,0,.2,1.839,2.7,2.7,0,0,0,1.883,1.123C877.337,346.709,877.563,346.374,878.236,345.677Z" transform="translate(-668.594 -278.204)" fill="#be6f72"/>
      <path id="Path_852" data-name="Path 852" d="M794.6,269.665a2.267,2.267,0,0,1,2.2-1.193,2.43,2.43,0,0,1,1.91,1.715,4.431,4.431,0,0,0,.36,1.074c.3.469.86.605,1.278.945a2.559,2.559,0,0,1,.816,1.808,5.469,5.469,0,0,1-.323,2.043,6.5,6.5,0,0,0-.243.855c-.049.282-.053.569-.1.85a2.77,2.77,0,0,1-1.115,1.839.486.486,0,0,1-.3.109c-.19-.022-.306-.243-.377-.442-.386-1.115-.294-2.478-1.006-3.368a3.68,3.68,0,0,0-1.152-.858,1.485,1.485,0,0,0-.588-.221,1.548,1.548,0,0,0-.85.311,5.3,5.3,0,0,1-1.681.744,2.065,2.065,0,0,1-1.737-.374c-.335-.277-.581-.693-.953-.909a7.336,7.336,0,0,0-1.128-.352,1.669,1.669,0,0,1-.675-2.546c.243-.292.6-.457.819-.78a4.921,4.921,0,0,0,.389-1.492,2.053,2.053,0,0,1,1.237-1.412,1.737,1.737,0,0,1,1.73.362c.243.219.437.5.675.729a1.944,1.944,0,0,0,1.8.486" transform="translate(-603.801 -232.886)" fill="#3f3d56"/>
      <path id="Path_853" data-name="Path 853" d="M828.756,419.57a.943.943,0,0,0-.258,1.03,22.751,22.751,0,0,0,2.826-.406c.661-.095,1.82-.049,2.265-.654.792-1.072-1.662-.833-2.112-.795A4.631,4.631,0,0,0,828.756,419.57Z" transform="translate(-633.961 -347.026)" opacity="0.1"/>
      <path id="Path_854" data-name="Path 854" d="M714.628,290.36a7.827,7.827,0,0,0-.185,1.458,4.246,4.246,0,0,1-2.187-.338l-2.009-.685a.571.571,0,0,0-.768.143,17.006,17.006,0,0,1-1.215,1.349.992.992,0,0,1-.211-.046c-.338-.141-.287-.663-.044-.938s.6-.428.824-.729a4.4,4.4,0,0,1,.345-.513,1.314,1.314,0,0,1,.566-.284,8.763,8.763,0,0,1,4.313-.163c.243.053.52.151.593.386A.712.712,0,0,1,714.628,290.36Z" transform="translate(-542.645 -249.162)" fill="#3f3d56"/>
      <path id="Path_855" data-name="Path 855" d="M714.628,290.36a7.827,7.827,0,0,0-.185,1.458,4.246,4.246,0,0,1-2.187-.338l-2.009-.685a.571.571,0,0,0-.768.143,17.006,17.006,0,0,1-1.215,1.349.992.992,0,0,1-.211-.046c-.338-.141-.287-.663-.044-.938s.6-.428.824-.729a4.4,4.4,0,0,1,.345-.513,1.314,1.314,0,0,1,.566-.284,8.763,8.763,0,0,1,4.313-.163c.243.053.52.151.593.386A.712.712,0,0,1,714.628,290.36Z" transform="translate(-542.645 -249.162)" opacity="0.1"/>
      <path id="Path_856" data-name="Path 856" d="M796.5,480.176a1.213,1.213,0,0,1,.848.637l-2.814-.714-1.458-.372c-.258-.066-1.181-.141-1.351-.343-.243-.3.62-.092.775-.07.471.07.943.143,1.412.228C794.8,479.7,795.648,479.96,796.5,480.176Z" transform="translate(-606.136 -392.847)" opacity="0.1"/>
      <path id="Path_857" data-name="Path 857" d="M797.7,487.285a5.261,5.261,0,0,0-1.239-.214c-.437-.1-.867-.243-1.3-.377-.872-.284-1.737-.607-2.634-.816-.165-.036-.729-.046-.7-.255s.564-.282.7-.292a6.889,6.889,0,0,1,2.525.578A11.125,11.125,0,0,1,797.7,487.285Z" transform="translate(-606.244 -397.465)" opacity="0.1"/>
      <path id="Path_858" data-name="Path 858" d="M797.744,469.329a18.664,18.664,0,0,0-2.619-.9,1.064,1.064,0,0,1-.668-.2.787.787,0,0,1-.216-.389,4.527,4.527,0,0,1,1.888.474,5.935,5.935,0,0,1,.885.471C797.216,468.9,797.523,469.258,797.744,469.329Z" transform="translate(-608.071 -384.221)" opacity="0.1"/>
      <path id="Path_859" data-name="Path 859" d="M869.237,384.46a4.25,4.25,0,0,0,2.979,4.7c-.119.576-.714.894-1.135,1.3-.593.576-.9,1.438-1.6,1.876a3.566,3.566,0,0,1-2.673.092.325.325,0,0,1-.209-.109.3.3,0,0,1-.039-.095,6.253,6.253,0,0,1-.185-3.3,10.789,10.789,0,0,1,1.293-2.512C868.136,385.6,868.18,384.727,869.237,384.46Z" transform="translate(-662.565 -321.109)" fill="#3f3d56"/>
      <path id="Path_860" data-name="Path 860" d="M753.921,327.1a6.317,6.317,0,0,0-2.673.814,2.989,2.989,0,0,1-1.725.654c-.367-.041-.729-.243-1.086-.146a2.132,2.132,0,0,0-.556.33.629.629,0,0,1-.612.1l-.243,3.363a12.331,12.331,0,0,0,.124,3.829,10.73,10.73,0,0,1,.544,1.861c.039.646-.019,1.31.027,1.963.044.605.177,1.2.211,1.805a11.49,11.49,0,0,1-.486,3.385,20.138,20.138,0,0,1-1.458,4.794,2.829,2.829,0,0,0-.486,1.3.664.664,0,0,0,.015.17c-.243.134-.469.26-.676.391a2.59,2.59,0,0,0-1.144,1.149c-.153.42-.083.9-.267,1.307s-.607.695-.7,1.132c-.066.318.061.654,0,.972a4.161,4.161,0,0,0-.134.5,1.055,1.055,0,0,0,.59.858,4.756,4.756,0,0,0,1.458.641l1.451-5.759h0a46.439,46.439,0,0,0,3.288-7.647,16.436,16.436,0,0,1,.95-2.517,11.84,11.84,0,0,0,.729-1.429,10.768,10.768,0,0,0,.35-1.922,13.446,13.446,0,0,1,.571-2.218,9.526,9.526,0,0,0,.62-2.376c.08-1.171-.345-2.408.107-3.492a4.643,4.643,0,0,1,.741-1.115c.627-.768,1.2-1.572,1.825-2.34A1.686,1.686,0,0,0,753.921,327.1Z" transform="translate(-568.975 -277.677)" fill="#3f3d56"/>
      <g id="Group_557" data-name="Group 557" transform="translate(184.806 35.979)" opacity="0.1">
        <path id="Path_861" data-name="Path 861" d="M816.338,271.81l-.3.022-.034.024A1.8,1.8,0,0,0,816.338,271.81Z" transform="translate(-809.35 -271.81)"/>
        <path id="Path_862" data-name="Path 862" d="M801.178,287.672a6.547,6.547,0,0,1-.311,1.419,6.487,6.487,0,0,0-.243.855c-.049.282-.053.569-.1.85a2.77,2.77,0,0,1-1.115,1.839.486.486,0,0,1-.3.109c-.19-.022-.306-.243-.377-.442-.386-1.115-.294-2.478-1.006-3.368a3.681,3.681,0,0,0-1.152-.858,1.484,1.484,0,0,0-.588-.221,1.547,1.547,0,0,0-.85.311,5.3,5.3,0,0,1-1.681.744,2.065,2.065,0,0,1-1.737-.374c-.335-.277-.581-.693-.952-.909a7.336,7.336,0,0,0-1.128-.352,1.66,1.66,0,0,1-.948-1.084.69.69,0,0,1-.019-.092,1.7,1.7,0,0,0,.02.821,1.66,1.66,0,0,0,.948,1.084,8.192,8.192,0,0,1,1.128.352,9.2,9.2,0,0,1,.952.909,2.065,2.065,0,0,0,1.737.374,5.3,5.3,0,0,0,1.681-.744,1.547,1.547,0,0,1,.85-.311,1.484,1.484,0,0,1,.588.221,3.681,3.681,0,0,1,1.135.865c.712.889.62,2.252,1.006,3.368.07.2.187.42.377.442a.486.486,0,0,0,.318-.117,2.77,2.77,0,0,0,1.118-1.847c.044-.282.049-.569.1-.85a6.488,6.488,0,0,1,.243-.855,5.471,5.471,0,0,0,.323-2.044C801.188,287.74,801.183,287.706,801.178,287.672Z" transform="translate(-788.631 -282.628)"/>
      </g>
      <path id="Path_863" data-name="Path 863" d="M672.168,372.81,672,375.028a46.133,46.133,0,0,1-4.848,15.857A45,45,0,0,1,643.027,412.7q-1.567.62-3.253,1.157l-1.254-3.936a46.024,46.024,0,0,0,9.044-3.956,40.027,40.027,0,0,0,15.833-16.8,45.141,45.141,0,0,0,4.155-12.222H652.317V372.81Z" transform="translate(-490.189 -312.29)" fill="#f48a36"/>
      <path id="Path_864" data-name="Path 864" d="M644.96,412.721a44.99,44.99,0,0,0,24.126-21.815,46.039,46.039,0,0,0,4.848-15.857l.165-2.218h1.7l-.165,2.218a46.071,46.071,0,0,1-4.848,15.857,45,45,0,0,1-24.126,21.815q-1.567.62-3.256,1.159l-.165-.518Q644.12,413.049,644.96,412.721Z" transform="translate(-493.762 -312.305)" fill="#fff" opacity="0.1"/>
      <path id="Path_865" data-name="Path 865" d="M435.168,409.923l-1.254,3.936q-1.689-.539-3.256-1.159a44.99,44.99,0,0,1-24.126-21.815,46.041,46.041,0,0,1-4.848-15.857l-.165-2.218h19.842v4.131H406.125a45.165,45.165,0,0,0,4.167,12.222,40,40,0,0,0,15.83,16.8,45.924,45.924,0,0,0,9.046,3.958Z" transform="translate(-310.776 -312.29)" fill="#f48a36"/>
      <path id="Path_866" data-name="Path 866" d="M432.1,412.721a44.99,44.99,0,0,1-24.126-21.815,46.04,46.04,0,0,1-4.848-15.857l-.165-2.218h-1.7l.165,2.218a46.071,46.071,0,0,0,4.848,15.857A45,45,0,0,0,430.4,412.721q1.567.62,3.256,1.159l.165-.518Q432.943,413.049,432.1,412.721Z" transform="translate(-310.579 -312.305)" fill="#fff" opacity="0.1"/>
      <path id="Path_867" data-name="Path 867" d="M540.764,592.822V615.1H494.92V592.822l1.458-1.944c14.856-5.273,17.867-19.023,18.467-24.464A22.367,22.367,0,0,0,515,564.15h5.669a22.384,22.384,0,0,0,.153,2.265c.61,5.44,3.62,19.2,18.467,24.464Z" transform="translate(-381.481 -457.137)" fill="#f48a36"/>
      <rect id="Rectangle_143" data-name="Rectangle 143" width="45.844" height="2.794" transform="translate(113.439 135.685)" opacity="0.1"/>
      <path id="Path_868" data-name="Path 868" d="M498.808,590.878c14.856-5.273,17.867-19.023,18.467-24.464a22.367,22.367,0,0,0,.153-2.265H515a22.362,22.362,0,0,1-.153,2.265c-.61,5.44-3.62,19.2-18.467,24.464l-1.458,1.944V615.1h2.43V592.822Z" transform="translate(-381.481 -457.137)" fill="#fff" opacity="0.1"/>
      <path id="Path_869" data-name="Path 869" d="M466.26,372.81h4.111v4.131h-3.747Q466.4,374.9,466.26,372.81Z" transform="translate(-359.785 -312.29)" opacity="0.1"/>
      <path id="Path_870" data-name="Path 870" d="M511.816,513.218l-1.254,3.936q-1.689-.539-3.256-1.159a43.53,43.53,0,0,1-4.536-6.735,45.922,45.922,0,0,0,9.046,3.958Z" transform="translate(-387.424 -415.584)" opacity="0.1"/>
      <path id="Path_871" data-name="Path 871" d="M638.51,513.226a46.031,46.031,0,0,0,9.044-3.956,43.7,43.7,0,0,1-4.536,6.738q-1.567.62-3.254,1.157Z" transform="translate(-490.181 -415.592)" opacity="0.1"/>
      <path id="Path_872" data-name="Path 872" d="M699.439,372.81q-.143,2.09-.364,4.131H695.33V372.81Z" transform="translate(-533.195 -312.29)" opacity="0.1"/>
      <path id="Path_873" data-name="Path 873" d="M582.935,566.415a15.7,15.7,0,0,1-5.975,0,22.381,22.381,0,0,0,.153-2.265h5.669a22.363,22.363,0,0,0,.153,2.265Z" transform="translate(-443.587 -457.137)" opacity="0.1"/>
      <path id="Path_874" data-name="Path 874" d="M468.26,344.65c.1,30.631,13.226,55.4,29.4,55.4s29.294-24.77,29.4-55.4Z" transform="translate(-361.299 -290.972)" fill="#f48a36"/>
      <path id="Path_875" data-name="Path 875" d="M473.484,344.65H468.26c.1,30.631,13.226,55.4,29.4,55.4a15.883,15.883,0,0,0,2.612-.221C485.32,397.331,473.584,373.614,473.484,344.65Z" transform="translate(-361.299 -290.972)" fill="#fff" opacity="0.1"/>
      <rect id="Rectangle_144" data-name="Rectangle 144" width="31.182" height="8.018" transform="translate(120.77 144.211)" fill="#191919"/>
      <path id="Path_876" data-name="Path 876" d="M498.548,594.593h29.724V593.5H497.09v8.018h1.458Z" transform="translate(-376.32 -449.289)" fill="#fff" opacity="0.1"/>
      <path id="Path_877" data-name="Path 877" d="M232.34,341.537c-.561-.187-3.866-2.8-4.116-3.985s1.747-12.208,1.747-12.208a4.489,4.489,0,0,1-.486-.036v-.177l.411-14.482s1.684-9.719-1.5-9.153-1.186,9.153-1.186,9.153-.362,4.359-.617,5.666c-.243,1.261-1.356,6.4-.6,7.994a1.739,1.739,0,0,0,.092.165h0s.126,5.479-1.246,6.228c-1.31.712-1.854,4.3-1.9,4.617l-.07-.029h0a3.809,3.809,0,0,1-1.013-.926c-.029-.036-.051-.075-.078-.114a5.351,5.351,0,0,0-1.647-8.356,3.45,3.45,0,0,0-.323-1.341c-.632-1.351-4.131-3.117-6.616-3.159-1.147-.034-2.087.292-2.43,1.188a6.854,6.854,0,0,0-.194,1.443A3.671,3.671,0,0,1,209,326.363a9.861,9.861,0,0,0-1.047-1.008,22.881,22.881,0,0,1-2.43-2.673s-5.052-5.231-5.426-6.665-5.421-10.043-6.544-8.543,3.866,8.033,3.866,8.033a15.2,15.2,0,0,0,1.677,3.176c.729.8,6.318,8.918,6.318,8.918l.267.554a4.855,4.855,0,0,0-2.641,2.649c-.559,1.818.663,3.645,1.509,5.346,1.647,3.319,1.883,7.552-.243,10.584-1.9,2.678-5.21,3.951-8.3,5.064a8.172,8.172,0,0,0,5.248,1.742c-.714,2.07-3.246,2.755-5.4,3.139a7.777,7.777,0,0,0,4.308,1.725,12.907,12.907,0,0,0,2.306.182h.19l.19-.015a6.591,6.591,0,0,0,.785-.1,4.124,4.124,0,0,0,2.787-1.832c.486-.848.656-2,1.538-2.43a1.965,1.965,0,0,1,.729-.173h.474l3.676.036h.469a3.039,3.039,0,0,0,2.673-1.062,2.945,2.945,0,0,0,.333-1.349c.078-1.164,0-2.362.032-3.535.313,2.136.641,5.465-.139,6.694a11.42,11.42,0,0,1-2.279,2.471,4.372,4.372,0,0,0-.6.617c-.119.085-.19.131-.19.131l-.075.226a4.279,4.279,0,0,0-.593,1.375.954.954,0,0,0-.046.391c.085.173-.607.884-.406,1.183a10.717,10.717,0,0,0-2.058,5.1l-3.159,4.8c-1.623,4.264-4.053,4.7-4.053,4.7s-5.708-3.829-5.863-4.017a22.046,22.046,0,0,0-2.338-1.123,2.473,2.473,0,0,0-1.123-1.025c-.748-.311-.812-1.458-.812-1.458-.092-2.709-1.684-2.916-1.684-2.916a5.17,5.17,0,0,0-3.015.537l-.228.017c-1.1.09-2.43.19-3.888.287-4.055.267-5.02,2.894-5.02,2.894a.808.808,0,0,0,.156,1.169c.654.607,4.838,0,5.015-.015a2.718,2.718,0,0,1-.953-.066c.659-.024,1.565-.049,2.338-.049h.187a10.111,10.111,0,0,0-.07,1.234c0,.778,2.15,1.276,2.15,1.276l6.548,5.832a25.94,25.94,0,0,1,6.736,4.485,3.36,3.36,0,0,0,4.935.362c2.772-.685,10.75-10.329,10.757-10.339h0c0,.282.168,9.661.486,11.544h0a1.252,1.252,0,0,0,.07.279c.374.809-.126,3.02-.343,3.953a10.981,10.981,0,0,0-.158,2.367s-2.991,11.42-2.743,12.424-1.621,5.666-1.621,5.666v3.888l.326-.017a2.1,2.1,0,0,0-.117.194l-.022.041a13.828,13.828,0,0,0,3.336.311,9.358,9.358,0,0,1,3.645,1.033,10.148,10.148,0,0,0,3.181.525c2.4.156,2.4-1.059,2.4-1.059-.275-1.655-4.068-2.209-4.184-2.226-.306-.192-.593-.4-.829-.581l-.049-.039a1.044,1.044,0,0,0,.041-.112c.406-1.652-1.839-2.369-1.839-2.369v-.4c1.458-.748,1.747-5.885,1.747-5.885s2.187-6.352,2.493-7.411a7,7,0,0,0,0-2.646l.219-1.37a6.74,6.74,0,0,0,.469-1.12,2.767,2.767,0,0,1,.53-1.307c.343-.406-.374-1.37-.374-1.37l.624-1.618v-1.776l1.458-6.444s1.528-7.506,1-9.962a4.226,4.226,0,0,1,.624-3.706,3.072,3.072,0,0,1-.321.146,9.286,9.286,0,0,0,.377-1.035l3.28.406v.049h1.183s-.374-4.617-.374-6.478,1.261-8.541,1.261-8.541S232.9,341.724,232.34,341.537Zm-14.562-5.389c0,.182-.017.372-.029.566l-.066.1-.121-.1-.148.231-.044.022c-.321-.165-.486-1.11-.717-.906l-.032.027c-.051-.058-.1-.075-.155-.027l-.049.041v-.216a5.47,5.47,0,0,0,1.361.173C217.78,336.087,217.778,336.119,217.778,336.148Zm10.91,21.5h.07l-.117.306C228.656,357.851,228.671,357.752,228.688,357.647Zm-11.977,55.1-.447-.112.243-.041.226.148.027.019Zm4.568-.654c-.148-.078-.3-.168-.445-.26C220.883,411.862,221.075,411.961,221.279,412.095Z" transform="translate(-142.009 -258.286)" fill="url(#linear-gradient-2)"/>
      <path id="Path_878" data-name="Path 878" d="M347.866,390.03l-2.943,7.669h.714L342.87,399.9l5,.622Z" transform="translate(-259.573 -295.259)" fill="#f86d70"/>
      <path id="Path_879" data-name="Path 879" d="M347.866,390.03l-2.943,7.669-.741-.2L342.87,399.9l5,.622Z" transform="translate(-259.573 -295.259)" opacity="0.1"/>
      <path id="Path_880" data-name="Path 880" d="M344.44,366.805h4.614l1.694-13.935H344.44Z" transform="translate(-260.762 -267.128)" fill="#f86d70"/>
      <path id="Path_881" data-name="Path 881" d="M344.44,366.805h4.614l1.694-13.935H344.44Z" transform="translate(-260.762 -267.128)" opacity="0.1"/>
      <path id="Path_882" data-name="Path 882" d="M333.886,442.72l1-.168,2.289-.389s6.874-1.55,8.293-1.677a8.863,8.863,0,0,0,2.488-.71c.372-.16.607-.282.607-.282l-2.476-4.522-3.842-2.848a6.651,6.651,0,0,1-3.458-1.932,2.277,2.277,0,0,1-.318-2.158c.627-1.944-3.744,1.859-3.744,1.859s.041.911,0,2.073c0,.228-.022.467-.039.71a4.787,4.787,0,0,1-.039.486,7.814,7.814,0,0,1-.758,3.052C332.829,437.95,333.886,442.72,333.886,442.72Z" transform="translate(-259.221 -353.678)" fill="#fbbebe"/>
      <path id="Path_883" data-name="Path 883" d="M338.79,432.367h.1c.175,0,.316-.372.486-.389a5.04,5.04,0,0,0,3.484-1.387,2.279,2.279,0,0,1-.318-2.155c.627-1.944-3.744,1.856-3.744,1.856S338.841,431.205,338.79,432.367Z" transform="translate(-263.288 -353.98)" opacity="0.1"/>
      <path id="Path_884" data-name="Path 884" d="M316.89,407.07a5.324,5.324,0,0,0,5.326,5.326,3.709,3.709,0,0,0,.52-.024,5.326,5.326,0,1,0-5.846-5.3Z" transform="translate(-246.71 -334.194)" fill="#fbbebe"/>
      <path id="Path_885" data-name="Path 885" d="M264,386.7a6.552,6.552,0,0,0-.192,1.436c-.26,1.728-2.017,2.763-3.606,3.487s-3.382,1.582-3.888,3.251c-.554,1.805.656,3.616,1.5,5.309,1.638,3.3,1.871,7.508-.243,10.526-1.878,2.673-5.151,3.941-8.232,5.054a8.116,8.116,0,0,0,5.212,1.735c-.707,2.058-3.222,2.741-5.365,3.12a7.708,7.708,0,0,0,4.279,1.715,9.7,9.7,0,0,0,3.4.063,4.086,4.086,0,0,0,2.765-1.822c.486-.843.651-1.992,1.528-2.418a2.766,2.766,0,0,1,1.246-.182l3.645.039c1.135,0,2.478-.087,3.064-1.057a2.916,2.916,0,0,0,.33-1.341c.158-2.391-.3-4.918.683-7.1.3-.658-1.606-1.7-1.407-2.4a22.4,22.4,0,0,0,.85-6.782c0-1.932,1.256-3.6,2.294-5.227s1.9-3.689,1.086-5.438C272.023,386.717,265.088,383.882,264,386.7Z" transform="translate(-195.452 -321.906)" fill="#3f3d56"/>
      <path id="Path_886" data-name="Path 886" d="M330.13,752.7l.928.615.143.095.027.017,1.1.729,2.571.433,2.26-.156s.651-1.361-.372-1.329a2.128,2.128,0,0,1-.933-.27l-.141-.07h0c-.148-.078-.3-.165-.442-.258h0c-.3-.192-.59-.4-.821-.578-.34-.262-.566-.462-.566-.462Z" transform="translate(-256.733 -598.941)" fill="#fbbebe"/>
      <path id="Path_887" data-name="Path 887" d="M334,757.581l.143.095.027.017,1.1.729,2.571.433,2.26-.156s.651-1.361-.372-1.329a2.129,2.129,0,0,1-.933-.27c.18.141.33.294.345.423.041.347-1.672.972-1.672.972l-2.415-.639s-.411-.117-.972-.262l-.053-.015Z" transform="translate(-259.662 -603.203)" opacity="0.1"/>
      <path id="Path_888" data-name="Path 888" d="M317,757.114a13.68,13.68,0,0,0,3.312.309,9.331,9.331,0,0,1,3.625,1.023,10.166,10.166,0,0,0,3.159.52c2.384.156,2.384-1.055,2.384-1.055-.272-1.645-4.038-2.187-4.155-2.211h0a4.624,4.624,0,0,1,.442.258h0c.267.175.556.4.578.588.041.345-1.672.972-1.672.972l-2.415-.637s-.411-.119-.972-.265h-.053a20.72,20.72,0,0,0-2.532-.522,1.758,1.758,0,0,0-1.681.972A.288.288,0,0,0,317,757.114Z" transform="translate(-246.793 -602.143)" fill="#3f3d56"/>
      <path id="Path_889" data-name="Path 889" d="M188.54,573.037l1.052.807s.306-.015.763-.029h.146c.654-.024,1.555-.049,2.32-.049a7.376,7.376,0,0,1,1.48.083c.525.185,1.458-3,1.458-3L194.7,570.6l-.35-.083-.243-.058-.858-.2-2.6.3-1.827,1.176Z" transform="translate(-149.547 -461.762)" fill="#fbbebe"/>
      <path id="Path_890" data-name="Path 890" d="M188.54,573.037l1.052.807s.306-.015.763-.029a.921.921,0,0,1-.486-.435c-.68-1.888,2.695-2.695,2.695-2.695l1.572-.068.306-.015h.243l-.35-.083-.243-.058-.858-.2-2.6.3-1.827,1.176Z" transform="translate(-149.547 -461.762)" opacity="0.1"/>
      <path id="Path_891" data-name="Path 891" d="M178.951,570.877c.637.588,4.806,0,4.981-.015a2.623,2.623,0,0,1-.945-.066,1.042,1.042,0,0,1-.729-.522c-.68-1.89,2.695-2.695,2.695-2.695l1.572-.068.3-.015,3.822-.165.185-1.052s-1.242.117-3.19.272c-1.1.09-2.43.19-3.871.284-4.026.267-4.984,2.879-4.984,2.879A.808.808,0,0,0,178.951,570.877Z" transform="translate(-142.033 -458.749)" fill="#3f3d56"/>
      <path id="Path_892" data-name="Path 892" d="M371.641,326.715a1.075,1.075,0,0,0,.092.165l.928,1.361,2.415.243.027-.957.406-14.4s1.672-9.661-1.487-9.1-1.176,9.1-1.176,9.1-.36,4.335-.612,5.637C371.988,320.018,370.888,325.136,371.641,326.715Z" transform="translate(-287.961 -260.195)" fill="#fbbebe"/>
      <path id="Path_893" data-name="Path 893" d="M350.14,541.712l.688,1.176,1.538,2.632s2.789,1.023,3.5.243a10.092,10.092,0,0,0,1.11-3.159c.243-1.011.406-1.864.406-1.864Z" transform="translate(-271.88 -439.415)" fill="#fbbebe"/>
      <path id="Path_894" data-name="Path 894" d="M350.14,541.75l.688,1.176a.811.811,0,0,0,.117-.124c.778-.991,4.2-.211,6.036-.148.243-1.011.406-1.864.406-1.864Z" transform="translate(-271.88 -439.453)" opacity="0.1"/>
      <path id="Path_895" data-name="Path 895" d="M206.16,570.749a7.362,7.362,0,0,1,1.48.083c.525.185,1.458-3,1.458-3l-1.4-.33,3.822-.165.185-1.052s-1.242.117-3.19.272a4.01,4.01,0,0,0-1.062.887l-.058.073A6.368,6.368,0,0,0,206.16,570.749Z" transform="translate(-162.885 -458.749)" opacity="0.1"/>
      <path id="Path_896" data-name="Path 896" d="M330.13,752.674l1.072.71c1.6-.289,3.059-.744,3.232-1.458a.235.235,0,0,0,0-.034c-.34-.262-.566-.462-.566-.462Z" transform="translate(-256.733 -598.911)" opacity="0.1"/>
      <path id="Path_897" data-name="Path 897" d="M317.09,758.269a37.078,37.078,0,0,0,4.213-.452,20.707,20.707,0,0,0-2.534-.527A1.748,1.748,0,0,0,317.09,758.269Z" transform="translate(-246.861 -603.339)" opacity="0.1"/>
      <path id="Path_898" data-name="Path 898" d="M206.64,552.632c0,.775,2.136,1.271,2.136,1.271l6.5,5.79a25.7,25.7,0,0,1,6.687,4.459c2.6,2.632,4.894.372,4.894.372,2.755-.68,10.691-10.281,10.691-10.281s.185,10.964.556,11.768-.124,3-.34,3.934a10.934,10.934,0,0,0-.156,2.352s-2.972,11.364-2.724,12.356-1.611,5.637-1.611,5.637v3.871s7.277-.279,7.678-1.92-1.825-2.355-1.825-2.355v-.4c1.458-.744,1.732-5.851,1.732-5.851s2.17-6.318,2.478-7.37a6.891,6.891,0,0,0,0-2.634l.216-1.361a6.8,6.8,0,0,0,.464-1.115,2.755,2.755,0,0,1,.527-1.3c.34-.4-.372-1.363-.372-1.363l.62-1.611v-1.764l1.458-6.41s1.519-7.464.991-9.911a4.194,4.194,0,0,1,.62-3.684c-2.486,1.3-3.74-1.6-4.15-2.843-.1-.321-.156-.535-.156-.535a17.383,17.383,0,0,0-6.592-.957,7.59,7.59,0,0,0-1.893.4c-3.531,1.271-4.087,6.534-4.087,6.534l-3.127,4.77c-1.611,4.243-4.026,4.675-4.026,4.675s-5.666-3.808-5.832-3.995a22.716,22.716,0,0,0-2.323-1.115,2.454,2.454,0,0,0-1.115-1.021c-.744-.311-.8-1.458-.8-1.458-.092-2.695-1.672-2.916-1.672-2.916C206.608,546.193,206.64,551.86,206.64,552.632Z" transform="translate(-163.249 -439.406)" fill="#3f3d56"/>
      <rect id="Rectangle_145" data-name="Rectangle 145" width="3.343" height="10.373" transform="translate(78.26 98.086) rotate(180)" fill="#f86d70"/>
      <rect id="Rectangle_146" data-name="Rectangle 146" width="3.343" height="10.373" transform="translate(78.26 98.086) rotate(180)" opacity="0.1"/>
      <path id="Path_899" data-name="Path 899" d="M372.439,397.41a.146.146,0,0,0,0,.022,1.082,1.082,0,0,0,.092.165l.928,1.361,2.415.243.027-.957A9.642,9.642,0,0,1,372.439,397.41Z" transform="translate(-288.761 -330.912)" opacity="0.1"/>
      <path id="Path_900" data-name="Path 900" d="M363.072,398.18s.124,5.448-1.239,6.191-1.893,4.617-1.893,4.617,4.131,2.717,5.052,3.912,3.035,4.043,2.6,4.724,1.055,3.778,1.055,3.778-2.726,5.574-2.107,7.681.68,7.678.68,7.678H368.4s-.372-4.583-.372-6.442,1.237-8.485,1.237-8.485.559-6.5,0-6.687-3.839-2.787-4.087-3.966,1.735-12.149,1.735-12.149A10.846,10.846,0,0,1,363.072,398.18Z" transform="translate(-279.299 -331.495)" fill="#f86d70"/>
      <path id="Path_901" data-name="Path 901" d="M336.12,451.744a5.3,5.3,0,0,0,.809,2.124l2.289-.389s6.874-1.55,8.293-1.677a8.863,8.863,0,0,0,2.488-.71,10.973,10.973,0,0,0-3.074-5.042l-.872-.809a14.616,14.616,0,0,0-4.4-2.811c.1.085,7.314,6.242,5.734,7.45s-5.832-1.732-5.832-1.732l-4.835-4.155-.175-.151-.279.435a4.061,4.061,0,0,1,.415.2,7.114,7.114,0,0,1,3.4,4.228C341.079,452.045,336.12,451.744,336.12,451.744Z" transform="translate(-261.267 -364.993)" opacity="0.1"/>
      <path id="Path_902" data-name="Path 902" d="M330,541.647s4.583,2.539,5.7,1.115a1.894,1.894,0,0,1,1.395-.486c-.1-.321-.156-.535-.156-.535a17.382,17.382,0,0,0-6.592-.957C330.134,541.31,330,541.647,330,541.647Z" transform="translate(-256.634 -439.414)" fill="#444053"/>
      <path id="Path_903" data-name="Path 903" d="M332.109,443.869l5.01,4.311s4.235,2.95,5.832,1.732-5.737-7.452-5.737-7.452h0a14.822,14.822,0,0,1,4.4,2.8l.872.809c2.294,2.126,2.811,2.126,2.889,5.251a4.391,4.391,0,0,1-.445,2.075c-.744.729-1.264,6.024-1.149,6.643s-1.385,5.968-.9,7.455-6.075-.744-7.185.683S330,467.065,330,467.065s2.539-6.5,3.159-6.937,1.363-3.778,0-5.326a5.777,5.777,0,0,1-1.485-3.035s4.957.306,3.963-3.035a7.013,7.013,0,0,0-3.81-4.427Z" transform="translate(-256.634 -365.016)" fill="#e8e8f0"/>
      <path id="Path_904" data-name="Path 904" d="M350,493.38s-1.922,3.623-4.408,4.563c-.08.029-.158.056-.243.08C342.751,498.813,350.191,494.5,350,493.38Z" transform="translate(-267.835 -403.563)" opacity="0.1"/>
      <path id="Path_905" data-name="Path 905" d="M243.1,336.062a14.465,14.465,0,0,0,1.672,3.159c.744.8,6.254,8.857,6.254,8.857l.467.972.4.829,3.531-.372.243-1.424-.136-.165a16.686,16.686,0,0,0-1.971-2.065,22.826,22.826,0,0,1-2.415-2.661s-5.015-5.2-5.387-6.629-5.389-9.962-6.5-8.485S243.1,336.062,243.1,336.062Z" transform="translate(-187.814 -278.297)" fill="#fbbebe"/>
      <g id="Group_558" data-name="Group 558" transform="translate(59.316 63.609)" opacity="0.1">
        <path id="Path_906" data-name="Path 906" d="M278.391,519.068a2.768,2.768,0,0,0-1.246.18c-.875.425-1.04,1.575-1.526,2.418a4.086,4.086,0,0,1-2.768,1.822,6.187,6.187,0,0,1-.671.092,7.614,7.614,0,0,0,2.129-.092,4.086,4.086,0,0,0,2.768-1.822c.486-.843.651-1.992,1.526-2.418a1.943,1.943,0,0,1,.729-.17Z" transform="translate(-272.18 -486.61)"/>
        <path id="Path_907" data-name="Path 907" d="M319.649,399.339c0-1.932,1.256-3.6,2.291-5.227s1.905-3.689,1.086-5.438c-.7-1.494-4.918-3.5-7.353-3.1,2.384.309,5.321,1.878,5.895,3.1.819,1.749-.051,3.808-1.086,5.438s-2.3,3.295-2.291,5.227a22.683,22.683,0,0,1-.853,6.782c-.2.693,1.7,1.74,1.409,2.4-.987,2.187-.525,4.709-.683,7.1a2.952,2.952,0,0,1-.333,1.341,2.841,2.841,0,0,1-2.452,1.05h.848c1.132,0,2.476-.087,3.062-1.057a2.952,2.952,0,0,0,.333-1.341c.158-2.391-.3-4.916.683-7.1.3-.656-1.606-1.7-1.409-2.4A22.413,22.413,0,0,0,319.649,399.339Z" transform="translate(-304.807 -385.521)"/>
      </g>
      <path id="Path_908" data-name="Path 908" d="M290.12,411.372l.4.829,3.531-.372.243-1.424-.136-.165C293.782,410.425,290.961,411.783,290.12,411.372Z" transform="translate(-226.444 -340.625)" opacity="0.1"/>
      <path id="Path_909" data-name="Path 909" d="M303.784,421.2s-.867-1.361-1.363-.991-.688-1.115-.972-.867-1.113.938-1.458-.027c-.27-.768-3.2-5.625-4.4-7.579-.306-.505-.5-.816-.5-.816s-3.343,1.672-4.148,1.115v1.176l.68.063,3.645,6.8s1.147,1.825,1.069,2.461,1.47,3.424,1.718,3.608,2.916,3.283,2.916,3.283,1.363,6.689.185,8.548a12.682,12.682,0,0,1-3.22,3.22,10.394,10.394,0,0,0-.525,1.983c.09.187-.714.991-.343,1.239s.867,1.98.867,1.98,1.735-2.787,2.673-3.22,2.138-6.133,2.138-6.133.343-3.358.369-5.525S303.041,421.2,303.784,421.2Z" transform="translate(-227.073 -341.14)" opacity="0.1"/>
      <path id="Path_910" data-name="Path 910" d="M303.014,421.2s-.865-1.361-1.361-.991-.69-1.115-.972-.867-1.11.938-1.458-.027c-.272-.768-3.207-5.625-4.4-7.579l-.5-.816s-3.343,1.672-4.15,1.115v1.176l.683.063,3.645,6.8s1.149,1.825,1.069,2.461,1.458,3.424,1.718,3.608,2.916,3.283,2.916,3.283,1.363,6.689.187,8.548a11.39,11.39,0,0,1-2.243,2.483A4.335,4.335,0,0,0,296.7,442.8a.923.923,0,0,0-.044.389c.09.185-.714.991-.343,1.239s.872,1.988.872,1.988,1.735-2.787,2.673-3.22S302,437.063,302,437.063s.34-3.358.369-5.525S302.285,421.2,303.014,421.2Z" transform="translate(-226.49 -341.14)" fill="#f86d70"/>
      <path id="Path_911" data-name="Path 911" d="M307.088,569.21a12.458,12.458,0,0,1,3.645,1.237c1.042.751-3.963-1.176-3.963-1.176Z" transform="translate(-239.049 -460.968)" opacity="0.1"/>
      <path id="Path_912" data-name="Path 912" d="M333.83,596.35s2.714,2.262,2.228,4.306-1.74,7.185-1.74,7.185Z" transform="translate(-259.534 -481.513)" opacity="0.1"/>
      <path id="Path_913" data-name="Path 913" d="M224.961,578.45s-3.825.418-3.577.914,3.577-.457,3.577-.457Z" transform="translate(-174.401 -467.962)" opacity="0.1"/>
      <path id="Path_914" data-name="Path 914" d="M351.018,651.941s.243.309-1.176,0-.372-1.261-.372-1.261Z" transform="translate(-271.092 -522.642)" opacity="0.1"/>
      <path id="Path_915" data-name="Path 915" d="M345.16,673.033a9.037,9.037,0,0,1-2.986,0C341.131,672.724,345.16,673.033,345.16,673.033Z" transform="translate(-265.719 -539.459)" opacity="0.1"/>
      <path id="Path_916" data-name="Path 916" d="M323.1,741.964s-.34-.372-2.044.309-2.384.712-2.879.486S323.1,741.964,323.1,741.964Z" transform="translate(-247.662 -591.668)" opacity="0.1"/>
      <path id="Path_917" data-name="Path 917" d="M338.8,576.28l-2.415,3.36S337.68,576.7,338.8,576.28Z" transform="translate(-261.464 -466.32)" opacity="0.1"/>
      <path id="Path_918" data-name="Path 918" d="M316.046,449.15s-.1,1.115-1.662,1.55a4.257,4.257,0,0,0-1.854.787" transform="translate(-243.409 -370.08)" opacity="0.1"/>
      <path id="Path_919" data-name="Path 919" d="M297.251,415.88a6.667,6.667,0,0,1-4.2,1.149" transform="translate(-228.662 -344.894)" opacity="0.1"/>
      <path id="Path_920" data-name="Path 920" d="M316.78,540.391s.6.377,2.041-1.271" transform="translate(-246.626 -438.189)" opacity="0.1"/>
      <path id="Path_921" data-name="Path 921" d="M372.692,466.275a1.055,1.055,0,0,0-.347-.816l-.4-.486a1.869,1.869,0,0,0-.265-.272c-.243-.187-.554-.243-.807-.411" transform="translate(-287.573 -381.541)" opacity="0.1"/>
      <path id="Path_922" data-name="Path 922" d="M858.439,123.767s-20.457-1.234-18.051,13.1a3.484,3.484,0,0,0,1.818,3.684s.036-1.062,2.1-.7a9.6,9.6,0,0,0,2.223.107,4.631,4.631,0,0,0,2.717-1.123h0s5.751-2.376,7.987-11.775c0,0,1.655-2.051,1.589-2.578l-3.453,1.475a6.157,6.157,0,0,1,.243,4.561s-.112-4.471-.775-4.374c-.134.022-1.793.863-1.793.863s2.029,4.337.5,7.491c0,0,.581-5.346-1.132-7.178l-2.43,1.419s2.372,4.481.763,8.138c0,0,.413-5.608-1.276-7.792l-2.2,1.718s2.228,4.417.87,7.45c0,0-.177-6.529-1.346-7.022a13.538,13.538,0,0,0-2.221,2.4s1.526,3.207.578,4.9c0,0-.581-4.349-1.057-4.374,0,0-1.92,2.882-2.119,4.86a10.47,10.47,0,0,1,1.655-5.132,5.785,5.785,0,0,0-2.94,1.521s.3-2.036,3.414-2.214a13.458,13.458,0,0,1,2.01-2.32,12.644,12.644,0,0,0-4.974.573s1.652-1.922,5.542-1.047l2.175-1.776s-4.077-.556-5.807.058c0,0,1.99-1.7,6.393-.462L851.8,126.8a21.713,21.713,0,0,0-5.547-.486s2.187-1.178,6.242.1l1.7-.761s-2.546-.5-3.292-.581-.785-.284-.785-.284a8.832,8.832,0,0,1,4.784.532S858.5,123.993,858.439,123.767Z" transform="translate(-642.857 -123.74)" fill="#6c63ff" opacity="0.1"/>
      <path id="Path_923" data-name="Path 923" d="M785.778,138.822s-9.233-.559-8.152,5.919a1.584,1.584,0,0,0,.819,1.667s.017-.486.95-.318a4.253,4.253,0,0,0,1,.049,2.082,2.082,0,0,0,1.227-.508h0s2.6-1.072,3.611-5.319c0,0,.746-.928.717-1.166l-1.56.666a2.8,2.8,0,0,1,.114,2.063s-.051-2.022-.35-1.973c-.061,0-.812.389-.812.389a4.611,4.611,0,0,1,.226,3.387s.262-2.415-.513-3.244l-1.1.641a4.835,4.835,0,0,1,.345,3.676s.187-2.534-.576-3.521l-.994.785s1.006,2,.394,3.365c0,0-.08-2.95-.61-3.171a6.1,6.1,0,0,0-1,1.084s.69,1.458.262,2.211c0,0-.262-1.966-.486-1.973a6.593,6.593,0,0,0-.957,2.187,4.75,4.75,0,0,1,.748-2.32,2.614,2.614,0,0,0-1.329.688s.136-.918,1.543-1a6.644,6.644,0,0,1,.909-1.047,5.7,5.7,0,0,0-2.248.26,2.539,2.539,0,0,1,2.505-.486l.972-.8a8.384,8.384,0,0,0-2.624.027s.9-.768,2.889-.209l1.069-.639a9.609,9.609,0,0,0-2.508-.216,3.836,3.836,0,0,1,2.821.044l.765-.343s-1.152-.228-1.49-.262-.355-.129-.355-.129a3.983,3.983,0,0,1,2.163.243A9.8,9.8,0,0,0,785.778,138.822Z" transform="translate(-595.427 -135.148)" fill="#6c63ff" opacity="0.1"/>
      <ellipse id="Ellipse_141" data-name="Ellipse 141" cx="9.77" cy="1.652" rx="9.77" ry="1.652" transform="translate(212.834 154.82)" fill="#f48a36"/>
      <path id="Path_924" data-name="Path 924" d="M932.67,742.55a2.828,2.828,0,0,0,.931-1.407,1.255,1.255,0,0,0-.651-1.431c-.6-.228-1.237.187-1.72.6a2.3,2.3,0,0,1-1.672.807,2.551,2.551,0,0,0,.787-2.384,1,1,0,0,0-.219-.486c-.333-.355-.933-.2-1.332.075-1.263.889-1.616,2.607-1.623,4.15a7.8,7.8,0,0,1-.022-1.7,1.752,1.752,0,0,0-.644-1.514,1.922,1.922,0,0,0-.972-.228,2.017,2.017,0,0,0-1.587.452,1.566,1.566,0,0,0,.061,1.944,6.187,6.187,0,0,0,1.645,1.317,3.645,3.645,0,0,1,1.174,1.12,1.012,1.012,0,0,1,.087.2h3.562A9.906,9.906,0,0,0,932.67,742.55Z" transform="translate(-706.025 -588.779)" fill="#f48a36"/>
    </g>
  </g>
</svg>
