<svg xmlns="http://www.w3.org/2000/svg" width="287.478" height="221.135" viewBox="0 0 287.478 221.135">
  <g id="Group_596" data-name="Group 596" transform="translate(-63 -210.708)">
    <g id="Group_530" data-name="Group 530" transform="translate(63 210.708)">
      <path id="Path_713" data-name="Path 713" d="M708.218,293.6c6.167-16.581,20.738-30.909,38.347-32.613a81.509,81.509,0,0,0-12.882,54.459c.9,7.365,2.67,15.462-1.3,21.73-2.47,3.9-6.824,6.3-11.311,7.385s-9.164,1-13.78.909l-1.033.51C703.012,328.593,702.051,310.185,708.218,293.6Z" transform="translate(-515.566 -231.338)" fill="#f0f0f0"/>
      <path id="Path_714" data-name="Path 714" d="M749.808,260.824a69.669,69.669,0,0,0-25.883,34.168,30.006,30.006,0,0,0-1.831,9.22,17.207,17.207,0,0,0,2.327,8.752c1.389,2.507,3.1,4.91,3.856,7.71a10.537,10.537,0,0,1-1.48,8.489c-1.991,3.12-4.984,5.34-7.986,7.408-3.334,2.3-6.833,4.629-8.872,8.237-.247.437-.911.028-.664-.408,3.549-6.277,11-8.557,15.553-13.889,2.126-2.488,3.515-5.632,2.858-8.944-.575-2.9-2.337-5.376-3.766-7.9a18.361,18.361,0,0,1-2.594-8.473,27.735,27.735,0,0,1,1.47-9.256,67.592,67.592,0,0,1,9.534-18.852,70.9,70.9,0,0,1,17.112-16.947c.41-.286.775.4.367.688Z" transform="translate(-518.724 -230.81)" fill="#fff"/>
      <path id="Path_715" data-name="Path 715" d="M738.95,313.994a10.453,10.453,0,0,1-5.221-12.487c.154-.478.9-.261.749.217a9.679,9.679,0,0,0,4.881,11.606C739.806,313.556,739.4,314.219,738.95,313.994Z" transform="translate(-532.458 -254.356)" fill="#fff"/>
      <path id="Path_716" data-name="Path 716" d="M742.316,368.311a20.147,20.147,0,0,0,11.427-9.219c.249-.436.913-.027.664.408a20.955,20.955,0,0,1-11.91,9.569C742.017,369.219,741.839,368.46,742.316,368.311Z" transform="translate(-537.491 -287.335)" fill="#fff"/>
      <path id="Path_717" data-name="Path 717" d="M774.628,286.427a5.917,5.917,0,0,0,5.522,1.014c.478-.156.655.6.181.758a6.63,6.63,0,0,1-6.111-1.108.4.4,0,0,1-.128-.536.392.392,0,0,1,.536-.128Z" transform="translate(-555.794 -245.852)" fill="#fff"/>
      <path id="Path_718" data-name="Path 718" d="M791.625,352.086c-.3.106-.591.212-.888.324a77.924,77.924,0,0,0-11.486,5.275c-.287.155-.576.317-.858.48a82.144,82.144,0,0,0-22.984,19.656,79.775,79.775,0,0,0-6.855,10c-2.8,4.835-5.453,10.3-9.567,13.824a13.671,13.671,0,0,1-1.341,1.035l-28.068-6.642c-.056-.047-.114-.088-.171-.135l-1.133-.214c.092-.188.191-.381.284-.569.053-.109.112-.217.165-.326.037-.072.075-.145.1-.212.012-.024.025-.048.036-.066.029-.067.064-.127.092-.188q.829-1.619,1.685-3.233c0-.006,0-.006.009-.011a117.3,117.3,0,0,1,15.573-22.945c.184-.207.37-.42.567-.623a76.127,76.127,0,0,1,9.042-8.518,67.313,67.313,0,0,1,5.541-3.957,55.96,55.96,0,0,1,16.042-6.983c11.325-2.933,23.461-2.212,33.451,3.581C791.122,351.784,791.371,351.931,791.625,352.086Z" transform="translate(-518.184 -280.167)" fill="#f0f0f0"/>
      <path id="Path_719" data-name="Path 719" d="M791.86,359.426a69.668,69.668,0,0,0-41.237,11.7,30,30,0,0,0-7.013,6.259,17.206,17.206,0,0,0-3.412,8.389c-.4,2.838-.48,5.787-1.563,8.478a10.536,10.536,0,0,1-6.292,5.887c-3.468,1.293-7.194,1.263-10.837,1.107-4.044-.173-8.243-.418-12.043,1.235-.461.2-.744-.526-.284-.726,6.613-2.875,13.932-.211,20.78-1.725,3.2-.706,6.2-2.38,7.667-5.421,1.285-2.659,1.371-5.7,1.751-8.577a18.362,18.362,0,0,1,3.03-8.327,27.735,27.735,0,0,1,6.747-6.506,67.591,67.591,0,0,1,18.962-9.312,70.9,70.9,0,0,1,23.866-3.229C792.481,358.674,792.357,359.444,791.86,359.426Z" transform="translate(-518.566 -287.166)" fill="#fff"/>
      <path id="Path_720" data-name="Path 720" d="M813.682,363.565a10.452,10.452,0,0,1,3.349-13.114c.41-.289.878.335.467.624a9.679,9.679,0,0,0-3.091,12.205c.222.45-.5.732-.726.284Z" transform="translate(-577.859 -282.457)" fill="#fff"/>
      <path id="Path_721" data-name="Path 721" d="M781.252,417.946a20.147,20.147,0,0,0,14.674-.482c.461-.2.745.528.284.726a20.956,20.956,0,0,1-15.271.47C780.466,418.492,780.781,417.778,781.252,417.946Z" transform="translate(-559.606 -320.806)" fill="#fff"/>
      <path id="Path_722" data-name="Path 722" d="M863.928,362.656a5.917,5.917,0,0,0,3.8,4.134c.475.163.16.876-.312.714a6.63,6.63,0,0,1-4.212-4.564.4.4,0,0,1,.221-.505.392.392,0,0,1,.505.221Z" transform="translate(-606.773 -289.339)" fill="#fff"/>
      <path id="Path_723" data-name="Path 723" d="M294.8,637.829c-16.068-7.4-29.254-23.013-29.624-40.7a81.509,81.509,0,0,0,53.331,16.958c7.412-.342,15.619-1.495,21.57,2.937,3.7,2.758,5.768,7.28,6.51,11.836s.3,9.213-.134,13.809l.431,1.069C329.3,645.662,310.868,645.23,294.8,637.829Z" transform="translate(-264.775 -423.575)" fill="#f0f0f0"/>
      <path id="Path_724" data-name="Path 724" d="M265.007,596.721a69.669,69.669,0,0,0,32.116,28.389,30,30,0,0,0,9.055,2.522,17.207,17.207,0,0,0,8.9-1.659c2.6-1.2,5.13-2.721,7.979-3.263a10.536,10.536,0,0,1,8.353,2.117c2.961,2.221,4.948,5.373,6.784,8.523,2.038,3.5,4.1,7.163,7.543,9.469.417.279-.041.91-.457.631-5.991-4.013-7.7-11.612-12.675-16.557-2.32-2.308-5.35-3.93-8.7-3.525-2.932.354-5.538,1.924-8.164,3.158a18.362,18.362,0,0,1-8.645,1.947,27.738,27.738,0,0,1-9.119-2.165,67.589,67.589,0,0,1-18.078-10.93,70.9,70.9,0,0,1-15.606-18.342c-.255-.431.461-.742.714-.314Z" transform="translate(-264.239 -423.225)" fill="#fff"/>
      <path id="Path_725" data-name="Path 725" d="M313.214,658.659a10.453,10.453,0,0,1-12.846,4.263c-.465-.19-.192-.92.273-.731a9.679,9.679,0,0,0,11.941-3.99c.259-.43.889.03.631.457Z" transform="translate(-284.764 -458.405)" fill="#fff"/>
      <path id="Path_726" data-name="Path 726" d="M368.754,650.057a20.147,20.147,0,0,0-8.33-12.09c-.416-.281.042-.912.457-.631a20.955,20.955,0,0,1,8.643,12.6C369.638,650.424,368.867,650.544,368.754,650.057Z" transform="translate(-319.153 -446.529)" fill="#fff"/>
      <path id="Path_727" data-name="Path 727" d="M288.372,619.558a5.917,5.917,0,0,0,1.428-5.43c-.12-.488.651-.608.77-.123a6.63,6.63,0,0,1-1.567,6.01.4.4,0,0,1-.544.087A.392.392,0,0,1,288.372,619.558Z" transform="translate(-277.999 -433.05)" fill="#fff"/>
      <path id="Path_728" data-name="Path 728" d="M361.163,505.725c.083.3.167.605.256.91a77.924,77.924,0,0,0,4.393,11.852c.133.3.273.6.414.891a82.144,82.144,0,0,0,17.865,24.4,79.773,79.773,0,0,0,9.449,7.591c4.61,3.158,9.859,6.216,13.062,10.583a13.681,13.681,0,0,1,.931,1.415l-8.742,27.486c-.051.052-.1.107-.148.16l-.3,1.113c-.18-.106-.365-.22-.546-.326-.1-.061-.208-.128-.313-.189-.069-.043-.139-.086-.2-.12-.023-.014-.046-.029-.063-.041-.065-.035-.122-.073-.18-.106q-1.552-.949-3.1-1.924c-.006,0-.006,0-.011-.01a117.293,117.293,0,0,1-21.7-17.261c-.192-.2-.391-.4-.579-.612a76.122,76.122,0,0,1-7.811-9.659,67.288,67.288,0,0,1-3.527-5.824,55.959,55.959,0,0,1-5.752-16.524c-2.069-11.514-.434-23.561,6.1-33.085C360.824,506.2,360.99,505.966,361.163,505.725Z" transform="translate(-315.412 -371.301)" fill="#f0f0f0"/>
      <path id="Path_729" data-name="Path 729" d="M370.273,505.5a69.669,69.669,0,0,0,8.55,42,30,30,0,0,0,5.712,7.466A17.207,17.207,0,0,0,392.643,559c2.8.613,5.734.916,8.335,2.2a10.536,10.536,0,0,1,5.395,6.719c1.027,3.556.716,7.269.285,10.889-.478,4.02-1.039,8.188.322,12.1.165.474-.581.7-.745.229-2.368-6.811.841-13.908-.151-20.851-.463-3.24-1.905-6.359-4.826-8.054-2.554-1.482-5.58-1.8-8.42-2.394a18.361,18.361,0,0,1-8.074-3.65,27.735,27.735,0,0,1-5.978-7.219,67.591,67.591,0,0,1-7.854-19.611,70.9,70.9,0,0,1-1.417-24.042C369.57,504.82,370.329,505,370.273,505.5Z" transform="translate(-324.193 -370.9)" fill="#fff"/>
      <path id="Path_730" data-name="Path 730" d="M368.667,588.382a10.452,10.452,0,0,1-12.824-4.33c-.257-.431.4-.85.658-.419a9.679,9.679,0,0,0,11.937,4c.465-.188.691.559.229.745Z" transform="translate(-316.594 -415.754)" fill="#fff"/>
      <path id="Path_731" data-name="Path 731" d="M420.671,610.568A20.146,20.146,0,0,0,421.3,595.9c-.163-.475.582-.7.745-.229a20.955,20.955,0,0,1-.684,15.263C421.155,611.393,420.468,611.025,420.671,610.568Z" transform="translate(-353.681 -422.592)" fill="#fff"/>
      <path id="Path_732" data-name="Path 732" d="M371.127,538.98a5.916,5.916,0,0,0,4.409-3.475c.2-.462.886-.093.689.365a6.63,6.63,0,0,1-4.869,3.855.4.4,0,0,1-.487-.258A.392.392,0,0,1,371.127,538.98Z" transform="translate(-325.211 -388.211)" fill="#fff"/>
      <path id="Path_733" data-name="Path 733" d="M397.051,368.38c-14.2-13.977-20.2-28.559-16.886-41.059,4.247-16.041,23.112-27.132,51.76-30.429l.106.92c-28.249,3.251-46.827,14.093-50.971,29.746-3.22,12.165,2.689,26.428,16.641,40.162Z" transform="translate(-330.029 -251.87)" fill="#f0f0f0"/>
      <path id="Path_734" data-name="Path 734" d="M582.059,531.952a222.264,222.264,0,0,1-56.1-7.7c-23.653-6.262-45.341-15.714-62.718-27.334l.515-.77c17.293,11.564,38.885,20.972,62.44,27.208,21.287,5.636,42.733,8.247,62.012,7.558l.034.925Q585.184,531.953,582.059,531.952Z" transform="translate(-378.046 -365.827)" fill="#f0f0f0"/>
      <path id="Path_735" data-name="Path 735" d="M743.919,421.122l-.3-.877c15.849-5.359,25.761-13.99,28.666-24.963,3.693-13.949-4.33-30.137-22.59-45.58-18.353-15.522-44.82-28.4-74.524-36.265l.237-.9c29.834,7.9,56.429,20.844,74.885,36.453,18.549,15.687,26.677,32.21,22.888,46.524C770.2,406.806,760.076,415.659,743.919,421.122Z" transform="translate(-499.254 -260.819)" fill="#f0f0f0"/>
      <path id="Path_736" data-name="Path 736" d="M394.89,504.632c-34.82-15.443-61.651-35.478-75.551-56.416l.771-.512c13.8,20.792,40.494,40.709,75.155,56.082Z" transform="translate(-295.751 -338.119)" fill="#f0f0f0"/>
      <path id="Path_737" data-name="Path 737" d="M767.149,628.8q-5.387,0-10.958-.241l.04-.925c27.718,1.2,52.173-2.117,70.728-9.594l.346.859C811.119,625.423,790.489,628.8,767.149,628.8Z" transform="translate(-545.586 -435.536)" fill="#f0f0f0"/>
      <path id="Path_738" data-name="Path 738" d="M581.6,276.868c-5.755-1.874-11.675-3.618-17.594-5.186-34.065-9.018-67.552-12.22-96.841-9.258l-.093-.921c29.4-2.972,63,.238,97.171,9.284,5.936,1.572,11.873,3.321,17.644,5.2Z" transform="translate(-380.238 -231.015)" fill="#f0f0f0"/>
      <path id="Path_739" data-name="Path 739" d="M346.218,371.625c-14.2-13.977-20.2-28.559-16.886-41.059,4.247-16.041,23.112-27.132,51.76-30.429l.106.92c-28.249,3.251-46.827,14.093-50.971,29.746-3.22,12.165,2.689,26.428,16.641,40.162Z" transform="translate(-300.958 -253.725)" fill="#f0f0f0"/>
      <path id="Path_740" data-name="Path 740" d="M531.227,535.2a222.265,222.265,0,0,1-56.1-7.7c-23.653-6.262-45.341-15.714-62.718-27.334l.515-.77c17.293,11.564,38.885,20.972,62.44,27.208,21.287,5.636,42.733,8.247,62.012,7.558l.033.925Q534.351,535.2,531.227,535.2Z" transform="translate(-348.975 -367.682)" fill="#f0f0f0"/>
      <path id="Path_741" data-name="Path 741" d="M693.087,424.366l-.3-.877c15.849-5.359,25.761-13.99,28.666-24.963,3.693-13.949-4.33-30.137-22.59-45.58-18.354-15.522-44.82-28.4-74.524-36.265l.237-.9c29.834,7.9,56.429,20.844,74.885,36.453,18.549,15.687,26.677,32.21,22.888,46.524C719.363,410.051,709.244,418.9,693.087,424.366Z" transform="translate(-470.182 -262.675)" fill="#f0f0f0"/>
      <path id="Path_742" data-name="Path 742" d="M344.057,507.876c-34.82-15.443-61.651-35.478-75.551-56.416l.771-.512c13.8,20.792,40.494,40.709,75.155,56.081Z" transform="translate(-266.68 -339.975)" fill="#f0f0f0"/>
      <path id="Path_743" data-name="Path 743" d="M716.316,632.047q-5.387,0-10.958-.241l.04-.925c27.718,1.2,52.174-2.117,70.728-9.594l.346.859C760.286,628.668,739.656,632.047,716.316,632.047Z" transform="translate(-516.515 -437.391)" fill="#f0f0f0"/>
      <path id="Path_744" data-name="Path 744" d="M530.765,280.112c-5.755-1.874-11.675-3.618-17.594-5.186-34.065-9.018-67.552-12.22-96.841-9.258l-.093-.921c29.4-2.972,63,.238,97.171,9.284,5.936,1.572,11.873,3.321,17.644,5.2Z" transform="translate(-351.166 -232.87)" fill="#f0f0f0"/>
      <path id="Path_745" data-name="Path 745" d="M455.189,462.691a7.185,7.185,0,0,0-7.177,7.177,337.222,337.222,0,0,0-2.723,60.639c.054,1.293.115,2.476.185,3.617.1,1.885.231,3.874.384,5.914.088,1.2.181,2.411.282,3.614.17,1.96.357,3.951.555,5.918.125,1.2.254,2.41.393,3.612.266,2.362.567,4.784.921,7.4a7.194,7.194,0,0,0,7.179,7.208H575.571a7.185,7.185,0,0,0,7.177-7.177l.005-.05c.536-2.443,1.036-4.933,1.485-7.4.24-1.3.447-2.482.634-3.612.338-2.056.638-4.047.892-5.916.174-1.255.331-2.47.467-3.613.224-1.871.427-3.8.62-5.911.106-1.145.2-2.328.3-3.616h0a210.51,210.51,0,0,0-4.394-60.583l-.005-.05a7.185,7.185,0,0,0-7.177-7.177Z" transform="translate(-367.584 -346.69)" fill="#f48a36"/>
      <path id="Path_746" data-name="Path 746" d="M490.132,466.9c-26.084,0-53.723-2.37-89.9-7.112h0A7.613,7.613,0,0,1,392.673,453a6.982,6.982,0,0,1-.048-.845V430.393a1.093,1.093,0,0,1,.006-.139,7.656,7.656,0,0,1,7.633-7.5c62.935-8.557,101.166-8.556,170.416,0h0a7.655,7.655,0,0,1,7.6,7.523.833.833,0,0,1,0,.114v21.761a7.012,7.012,0,0,1-.048.847,7.623,7.623,0,0,1-7.592,6.793C540.733,464.534,516.21,466.9,490.132,466.9Z" transform="translate(-337.663 -320.18)" fill="#191919"/>
      <path id="Path_747" data-name="Path 747" d="M598.874,472.654H583.048a7.606,7.606,0,0,1-7.6-7.6v-57.5a7.606,7.606,0,0,1,7.6-7.6h15.826a7.606,7.606,0,0,1,7.6,7.6v57.5A7.606,7.606,0,0,1,598.874,472.654Z" transform="translate(-442.221 -310.815)" fill="#f48a36"/>
      <path id="Path_748" data-name="Path 748" d="M596.822,352.095a20.068,20.068,0,0,0-.6-3.19,20.685,20.685,0,0,0-1.173-3.054,17.974,17.974,0,0,0-8.093-8.4,21.577,21.577,0,0,0-14.211-1.3,28.084,28.084,0,0,0-10.978,5.14,28.544,28.544,0,0,0-4.579,4.318,56.031,56.031,0,0,0-4.211,6.753,28.108,28.108,0,0,0-6.247-8.936,29.371,29.371,0,0,0-10.761-6.5,27.114,27.114,0,0,0-6.6-1.341,20.989,20.989,0,0,0-7.075.617,17.822,17.822,0,0,0-10.088,7.374,18.6,18.6,0,0,0-3.151,11.346,19.085,19.085,0,0,0,1.3,5.925,22.6,22.6,0,0,0,1.418,2.975,23.151,23.151,0,0,0,1.885,2.7,21.353,21.353,0,0,0,10.49,6.986,31.221,31.221,0,0,0,13.587.766,63.938,63.938,0,0,0,13.49-3.806c.584-.22,1.165-.446,1.747-.67a85.645,85.645,0,0,0,11.882,3.855,35.778,35.778,0,0,0,13.987.561,22.444,22.444,0,0,0,11.6-5.666A20.828,20.828,0,0,0,596.45,358.1a18.012,18.012,0,0,0,.371-6.009Zm-60.293,17.7a31.187,31.187,0,0,1-7.564.044,23.475,23.475,0,0,1-5.26-1.4,16.539,16.539,0,0,1-8.863-8.8,17.707,17.707,0,0,1-1.073-3.9,16.144,16.144,0,0,1,0-3.578,16.84,16.84,0,0,1,1.006-3.651,17.207,17.207,0,0,1,1.888-3.233,16.226,16.226,0,0,1,2.436-2.447,14.832,14.832,0,0,1,2.729-1.6,16.676,16.676,0,0,1,3.569-.955,21.12,21.12,0,0,1,4.975.039,25.73,25.73,0,0,1,5.73,1.58,27.044,27.044,0,0,1,5.518,3.217,26.484,26.484,0,0,1,4.264,4.251,26.128,26.128,0,0,1,3.1,5.346,27.079,27.079,0,0,1,1.667,6.162l0,.031a28.075,28.075,0,0,0-.182,3.2c0,.412.019.823.039,1.233a2.46,2.46,0,0,0-.482.649,77.776,77.776,0,0,1-9.9,3.138Q538.348,369.531,536.529,369.79Zm55.661-14.055a17.7,17.7,0,0,1-1.073,3.9,16.447,16.447,0,0,1-8.863,8.8,23.478,23.478,0,0,1-5.26,1.4,31.194,31.194,0,0,1-7.578-.046,62.807,62.807,0,0,1-12.991-3.622c-.174-.065-.346-.133-.519-.2a2.416,2.416,0,0,0-.462-.642,27.716,27.716,0,0,0-.138-4.469,27.086,27.086,0,0,1,1.665-6.15,26.131,26.131,0,0,1,3.1-5.346,26.484,26.484,0,0,1,4.264-4.251,27.044,27.044,0,0,1,5.518-3.217,25.733,25.733,0,0,1,5.73-1.58,21.124,21.124,0,0,1,4.975-.039,16.682,16.682,0,0,1,3.569.955,14.831,14.831,0,0,1,2.729,1.6,16.225,16.225,0,0,1,2.436,2.447,17.2,17.2,0,0,1,1.888,3.233,16.841,16.841,0,0,1,1.006,3.651,16.14,16.14,0,0,1,0,3.578Z" transform="translate(-404.237 -273.951)" fill="#f48a36"/>
      <circle id="Ellipse_117" data-name="Ellipse 117" cx="2.778" cy="2.778" r="2.778" transform="translate(97.79 158.829)" fill="#fff"/>
      <circle id="Ellipse_118" data-name="Ellipse 118" cx="2.778" cy="2.778" r="2.778" transform="translate(117.7 151.884)" fill="#fff"/>
      <circle id="Ellipse_119" data-name="Ellipse 119" cx="2.778" cy="2.778" r="2.778" transform="translate(108.903 173.645)" fill="#fff"/>
      <circle id="Ellipse_120" data-name="Ellipse 120" cx="2.778" cy="2.778" r="2.778" transform="translate(191.318 158.829)" fill="#fff"/>
      <circle id="Ellipse_121" data-name="Ellipse 121" cx="2.778" cy="2.778" r="2.778" transform="translate(171.409 151.884)" fill="#fff"/>
      <circle id="Ellipse_122" data-name="Ellipse 122" cx="2.778" cy="2.778" r="2.778" transform="translate(180.206 173.645)" fill="#fff"/>
      <circle id="Ellipse_123" data-name="Ellipse 123" cx="2.778" cy="2.778" r="2.778" transform="translate(193.633 207.445)" fill="#fff"/>
      <circle id="Ellipse_124" data-name="Ellipse 124" cx="2.778" cy="2.778" r="2.778" transform="translate(200.578 187.536)" fill="#fff"/>
      <circle id="Ellipse_125" data-name="Ellipse 125" cx="2.778" cy="2.778" r="2.778" transform="translate(178.817 196.333)" fill="#fff"/>
      <circle id="Ellipse_126" data-name="Ellipse 126" cx="2.778" cy="2.778" r="2.778" transform="translate(125.93 195.445)" fill="#fff"/>
      <circle id="Ellipse_128" data-name="Ellipse 128" cx="2.778" cy="2.778" r="2.778" transform="translate(99.18 196.333)" fill="#fff"/>
      <path id="Path_2961" data-name="Path 2961" d="M688.159,208.52a6.637,6.637,0,0,0,6.464-.759c2.349-1.752,3.23-4.811,3.968-7.647l2.179-8.39-3.681,2.235c-2.647,1.607-5.355,3.267-7.265,5.706s-2.877,5.857-1.618,8.688" transform="translate(-506.381 -191.724)" fill="#f2f2f2"/>
      <path id="Path_2961-2" data-name="Path 2961" d="M441.944,376.021a6.638,6.638,0,0,0,1.04-6.425c-1.042-2.74-3.742-4.424-6.268-5.911l-7.472-4.394,1.141,4.152c.82,2.986,1.675,6.045,3.5,8.55s4.845,4.371,7.913,3.936" transform="translate(-358.605 -287.556)" fill="#f2f2f2"/>
      <path id="Path_2961-3" data-name="Path 2961" d="M851.849,677.772a6.638,6.638,0,0,0,1.04-6.425c-1.042-2.739-3.742-4.424-6.268-5.91l-7.472-4.394,1.141,4.152c.82,2.986,1.675,6.045,3.5,8.55s4.845,4.372,7.913,3.936" transform="translate(-593.031 -460.128)" fill="#f2f2f2"/>
      <circle id="Ellipse_129" data-name="Ellipse 129" cx="3.704" cy="3.704" r="3.704" transform="translate(113.996 46.318)" fill="#191919"/>
      <circle id="Ellipse_130" data-name="Ellipse 130" cx="3.704" cy="3.704" r="3.704" transform="translate(15.375 155.588)" fill="#191919"/>
      <circle id="Ellipse_131" data-name="Ellipse 131" cx="3.704" cy="3.704" r="3.704" transform="translate(270.03 125.493)" fill="#191919"/>
      <circle id="Ellipse_132" data-name="Ellipse 132" cx="3.704" cy="3.704" r="3.704" transform="translate(11.671 62.523)" fill="#e6e6e6"/>
      <circle id="Ellipse_133" data-name="Ellipse 133" cx="3.704" cy="3.704" r="3.704" transform="translate(240.86 168.089)" fill="#e6e6e6"/>
      <circle id="Ellipse_134" data-name="Ellipse 134" cx="3.704" cy="3.704" r="3.704" transform="translate(248.268 55.578)" fill="#e6e6e6"/>
      <path id="Path_749" data-name="Path 749" d="M463.5,467.134a1.1,1.1,0,0,1-1.532.116,1.232,1.232,0,0,1,.007-1.786c1.325-1.59,3.515.089,3.811,1.668a3.972,3.972,0,0,1-1.869,3.956,4.276,4.276,0,0,1-4.773-.625c-2.71-2.236-1.972-6.712,1.038-8.33,1.921-1.032,4.35-.579,6.243.286a52,52,0,0,1,5.933,3.709,33.079,33.079,0,0,0,14.288,4.879c.888.091.882-1.3,0-1.389a31.773,31.773,0,0,1-8.21-1.977,36.079,36.079,0,0,1-7.377-4.049c-2.32-1.59-4.743-3.135-7.614-3.4a6.605,6.605,0,0,0-6.089,2.649,6.746,6.746,0,0,0-1.014,5.917,6.247,6.247,0,0,0,4.762,4.1,5.107,5.107,0,0,0,5.384-2.487,4.737,4.737,0,0,0-.574-5.8,3.685,3.685,0,0,0-3.583-.974,3.152,3.152,0,0,0-2.131,2.713c-.154,2.372,3.213,3.558,4.5,1.522.479-.758-.722-1.456-1.2-.7Z" transform="translate(-373.94 -345.236)" fill="#191919"/>
      <path id="Path_750" data-name="Path 750" d="M719.106,467.134a1.1,1.1,0,0,0,1.532.116,1.232,1.232,0,0,0-.007-1.786c-1.325-1.59-3.515.089-3.811,1.668a3.973,3.973,0,0,0,1.869,3.956,4.276,4.276,0,0,0,4.773-.625c2.71-2.236,1.972-6.712-1.038-8.33-1.921-1.032-4.35-.579-6.243.286a52.014,52.014,0,0,0-5.933,3.709,33.079,33.079,0,0,1-14.288,4.879c-.888.091-.882-1.3,0-1.389a31.775,31.775,0,0,0,8.21-1.977,36.077,36.077,0,0,0,7.377-4.049c2.32-1.59,4.743-3.135,7.614-3.4a6.605,6.605,0,0,1,6.089,2.649,6.746,6.746,0,0,1,1.014,5.917,6.247,6.247,0,0,1-4.762,4.1,5.107,5.107,0,0,1-5.384-2.488,4.737,4.737,0,0,1,.574-5.8,3.685,3.685,0,0,1,3.583-.974,3.152,3.152,0,0,1,2.131,2.713c.154,2.372-3.213,3.558-4.5,1.522-.479-.758.722-1.456,1.2-.7Z" transform="translate(-510.762 -345.236)" fill="#191919"/>
      <path id="Path_751" data-name="Path 751" d="M85.176,34.2l-1.835,2.3-6.489-3.838,1.834-2.3Z" transform="translate(-43.952 -17.364)" fill="#e4e4e4"/>
      <path id="Path_752" data-name="Path 752" d="M103,62.43l1.62,2.418-6.817,3.391-1.62-2.418Z" transform="translate(-55.009 -35.704)" fill="#e4e4e4"/>
      <path id="Path_753" data-name="Path 753" d="M128.162,37.872l3.238.115-.322,6.776-3.239-.114Z" transform="translate(-73.111 -21.659)" fill="#e4e4e4"/>
      <path id="Path_754" data-name="Path 754" d="M620.54,365.153l-1.835,2.3-6.489-3.838,1.835-2.3Z" transform="translate(-350.127 -206.636)" fill="#e4e4e4"/>
      <path id="Path_755" data-name="Path 755" d="M638.369,393.383l1.62,2.418-6.817,3.391-1.62-2.418Z" transform="translate(-361.185 -224.976)" fill="#e4e4e4"/>
      <path id="Path_756" data-name="Path 756" d="M663.527,368.825l3.238.115-.322,6.776L663.2,375.6Z" transform="translate(-379.287 -210.931)" fill="#e4e4e4"/>
    </g>
    <g id="noun_movie_ticket_1807367" data-name="noun_movie ticket_1807367" transform="translate(166.298 402.084) rotate(-90)">
      <g id="Group_531" data-name="Group 531" transform="translate(10 30)">
        <path id="Path_757" data-name="Path 757" d="M10,982.362v7.851a7.851,7.851,0,1,1,0,15.7v7.851H53.966v-31.4Zm47.106,0v31.4h15.7v-7.851a7.851,7.851,0,0,1,0-15.7v-7.851Zm-21.2,4.711,2.944,7.311,8.047.491-6.207,5.005,2.012,7.606-6.8-4.22-6.8,4.22,2.012-7.606-6.207-5.005,8.047-.491Z" transform="translate(-10 -982.362)" fill="#fff"/>
      </g>
    </g>
  </g>
</svg>
