<svg xmlns="http://www.w3.org/2000/svg" width="21.933" height="21.933" viewBox="0 0 21.933 21.933">
  <g id="noun_accepting_860686" transform="translate(359.967 -61.033)">
    <g id="Group_556" data-name="Group 556" transform="translate(-364.967 -896.329)">
      <path id="Path_831" data-name="Path 831" d="M15.967,5A10.967,10.967,0,1,0,26.933,15.967,10.978,10.978,0,0,0,15.967,5Zm0,1.462a9.5,9.5,0,1,1-9.5,9.5A9.493,9.493,0,0,1,15.967,6.462Zm5.826,4.623a.731.731,0,0,0-.5.228l-7.54,7.768-3.13-2.924a.735.735,0,1,0-1.005,1.074l3.656,3.412a.731.731,0,0,0,1.028-.03l8.042-8.286a.731.731,0,0,0-.548-1.241Z" transform="translate(0 952.362)" fill="#191919"/>
    </g>
  </g>
</svg>
