<svg id="saudi-arabia_1_" data-name="saudi-arabia (1)" xmlns="http://www.w3.org/2000/svg" width="32.958" height="21.593" viewBox="0 0 32.958 21.593">
  <path id="Path_802" data-name="Path 802" d="M32.389,109.869H.568A.568.568,0,0,1,0,109.3V88.844a.568.568,0,0,1,.568-.568H32.389a.568.568,0,0,1,.568.568V109.3A.568.568,0,0,1,32.389,109.869Z" transform="translate(0 -88.276)" fill="#73af00"/>
  <g id="Group_552" data-name="Group 552" transform="translate(6.516 4.546)">
    <path id="Path_803" data-name="Path 803" d="M102.441,168.4c.056.359.273.472.462.457a.464.464,0,0,0,.418-.436V167.19a.112.112,0,1,1,.224,0v1.237a.448.448,0,0,0,.614.416l.112-.045c.01,1.034-.053,1.943-.054,1.96a.224.224,0,0,0,.207.239h.016a.224.224,0,0,0,.223-.208c.005-.073.074-1.068.054-2.17l.068-.027a.225.225,0,0,1,.183.008.64.64,0,0,0,.739-.12l.04-.04a.669.669,0,0,0,.162-.688l-.191-.572a.224.224,0,0,0,.166-.414l-.448-.224a.224.224,0,0,0-.313.271l.36,1.081a.223.223,0,0,1-.054.229l-.04.04a.192.192,0,0,1-.222.036.67.67,0,0,0-.466-.047,7.726,7.726,0,0,0-.274-1.93.224.224,0,0,0-.425.142,7.7,7.7,0,0,1,.257,1.955l-.268.107V167.19a.56.56,0,0,0-1.12,0v1.084l-.229-1.129a.224.224,0,1,0-.439.089Z" transform="translate(-102.138 -165.609)" fill="#f5f5f5"/>
    <path id="Path_804" data-name="Path 804" d="M109.384,163.266a.224.224,0,0,0,.224-.224v-.224a.224.224,0,1,0-.448,0v.224A.224.224,0,0,0,109.384,163.266Z" transform="translate(-108.649 -162.356)" fill="#f5f5f5"/>
    <path id="Path_805" data-name="Path 805" d="M144.181,163.042h.224a.224.224,0,0,0,0-.448h-.224a.224.224,0,0,0,0,.448Z" transform="translate(-141.206 -162.356)" fill="#f5f5f5"/>
    <path id="Path_806" data-name="Path 806" d="M106.908,214.822l-1.12.672a.224.224,0,1,0,.231.384l1.12-.672a.224.224,0,1,0-.231-.384Z" transform="translate(-105.392 -211.192)" fill="#f5f5f5"/>
    <path id="Path_807" data-name="Path 807" d="M119.622,169.637l.005,0a.511.511,0,0,0,.1.211.44.44,0,0,0,.382.148.618.618,0,0,0,.466-.245.405.405,0,0,0,.047.028.424.424,0,0,0,.394-.013.85.85,0,0,0,.4-.789.229.229,0,0,0-.233-.212.225.225,0,0,0-.214.233s.005.269-.157.367a.546.546,0,0,1-.07-.189.224.224,0,0,0-.445.037c0,.033-.007.32-.229.344a.547.547,0,0,1,0-.293.224.224,0,0,0-.344-.237l-.125.085c-.059-1.3-.2-2.813-.2-2.832a.224.224,0,1,0-.446.041c0,.021.16,1.772.209,3.109l-.034.033a.577.577,0,0,0-.49-.385.817.817,0,0,0-.789.5.53.53,0,0,0,.171.668.747.747,0,0,0,.668.031,1.873,1.873,0,0,1-.364.691.94.94,0,0,1-.716.365.588.588,0,0,1-.435-.186,1.279,1.279,0,0,1-.237-.8.224.224,0,0,0-.211-.235.22.22,0,0,0-.236.211,1.718,1.718,0,0,0,.352,1.126,1.027,1.027,0,0,0,.75.333h.045a1.365,1.365,0,0,0,1.028-.521,2.317,2.317,0,0,0,.513-1.148,2.539,2.539,0,0,1-1.075,2.011,1.118,1.118,0,0,1-1.122.082.961.961,0,0,1-.493-.947.224.224,0,0,0-.444-.056,1.407,1.407,0,0,0,.739,1.4,1.523,1.523,0,0,0,.678.162,1.658,1.658,0,0,0,.878-.265,2.978,2.978,0,0,0,1.286-2.393C119.63,169.961,119.627,169.8,119.622,169.637Zm-1.351.231c-.04-.027-.009-.111,0-.128a.381.381,0,0,1,.313-.22h.018c.029,0,.1.01.137.179,0,.018.006.036.009.055C118.5,169.9,118.329,169.906,118.272,169.868Z" transform="translate(-115.087 -165.611)" fill="#f5f5f5"/>
    <path id="Path_808" data-name="Path 808" d="M102.073,243.561a.224.224,0,0,0-.306.079.461.461,0,0,1-.038.053l-.007-.018a1.507,1.507,0,0,1,.007-.76.224.224,0,0,0-.433-.115,1.929,1.929,0,0,0,.007,1.033c.1.274.261.343.375.352h.03a.588.588,0,0,0,.446-.32A.224.224,0,0,0,102.073,243.561Z" transform="translate(-101.226 -237.244)" fill="#f5f5f5"/>
    <path id="Path_809" data-name="Path 809" d="M175.354,164.611a.222.222,0,0,0,.138-.048l1.129-.887a.217.217,0,0,0,.037-.043.561.561,0,1,0-.644-.05l-.8.627a.224.224,0,0,0,.139.4Zm1.017-1.568a.112.112,0,1,1-.112.112A.112.112,0,0,1,176.371,163.043Z" transform="translate(-170.372 -162.357)" fill="#f5f5f5"/>
    <path id="Path_810" data-name="Path 810" d="M185.48,190.444a.224.224,0,0,0-.283.142.685.685,0,0,0,.087.661.452.452,0,0,0,.335.128.984.984,0,0,0,.309-.057.224.224,0,1,0-.142-.425.778.778,0,0,1-.183.039.429.429,0,0,1,.018-.2A.224.224,0,0,0,185.48,190.444Z" transform="translate(-179.747 -188.402)" fill="#f5f5f5"/>
    <path id="Path_811" data-name="Path 811" d="M227.777,163.334a.224.224,0,0,0,.278-.152l.131-.448a.224.224,0,1,0-.43-.126l-.131.448A.224.224,0,0,0,227.777,163.334Z" transform="translate(-219.48 -162.219)" fill="#f5f5f5"/>
    <path id="Path_812" data-name="Path 812" d="M206.05,159.988a.224.224,0,1,0,.226-.387c-.045-.026-.039-.1-.037-.115a.176.176,0,0,1,.1-.15.224.224,0,0,0-.133-.428.615.615,0,0,0-.415.527A.552.552,0,0,0,206.05,159.988Z" transform="translate(-199.059 -158.898)" fill="#f5f5f5"/>
    <path id="Path_813" data-name="Path 813" d="M178.978,232.19a.224.224,0,0,0-.042.444.421.421,0,0,1,.042.228.224.224,0,1,0,.448,0C179.426,232.2,179,232.19,178.978,232.19Z" transform="translate(-173.763 -227.472)" fill="#f5f5f5"/>
    <path id="Path_814" data-name="Path 814" d="M234.871,208.47a.516.516,0,0,0,.084.007.766.766,0,0,0,.53-.265.224.224,0,0,0-.317-.317c-.134.134-.206.137-.224.133-.043-.006-.081-.062-.09-.077a.224.224,0,0,0-.4.2A.606.606,0,0,0,234.871,208.47Z" transform="translate(-225.857 -204.68)" fill="#f5f5f5"/>
    <path id="Path_815" data-name="Path 815" d="M294.025,190.977l0-.01a.224.224,0,0,0-.424.143.5.5,0,0,0,.365.349.376.376,0,0,0,.049,0,.548.548,0,0,0,.433-.3.224.224,0,1,0-.373-.248A.673.673,0,0,1,294.025,190.977Z" transform="translate(-281.203 -188.761)" fill="#f5f5f5"/>
    <path id="Path_816" data-name="Path 816" d="M205.68,171.891c0-.955-.042-1.851-.1-2.636a11.345,11.345,0,0,1,.786,1.6.224.224,0,1,0,.419-.157,14.833,14.833,0,0,0-1.3-2.455c-.122-1.207-.26-1.973-.262-1.986a.224.224,0,0,0-.441.08c0,.01.072.4.157,1.068-.172-.255-.332-.486-.466-.675l.011,0a.224.224,0,1,0,.142-.425l-.672-.224a.223.223,0,0,0-.253.081.225.225,0,0,0-.033.069.489.489,0,0,0-.468-.112.381.381,0,0,0-.214.4,2.024,2.024,0,0,0,.155.635c.132.374.214.648.075.779a.245.245,0,0,1-.23.081c-.138-.035-.275-.219-.366-.492a.206.206,0,0,0-.018-.031,3.809,3.809,0,0,0-.068-1.239.224.224,0,1,0-.439.088,2.132,2.132,0,0,1-.117,1.6.4.4,0,0,1-.335.152.129.129,0,0,1-.107-.05,2.159,2.159,0,0,1-.119-1.263.224.224,0,0,0-.222-.255c-.385,0-.532.438-.661.825-.057.17-.162.486-.235.519-.136,0-.223-.4-.224-.672a.224.224,0,0,0-.224-.224h0a.224.224,0,0,0-.224.224c0,.517.176,1.12.672,1.12.369,0,.519-.4.644-.777a1.4,1.4,0,0,0,.254.8.575.575,0,0,0,.446.2.852.852,0,0,0,.681-.316,1.033,1.033,0,0,0,.083-.124.836.836,0,0,0,.469.352.645.645,0,0,0,.158.02.711.711,0,0,0,.488-.209.666.666,0,0,0,.075-.09.6.6,0,0,0,.165.025.906.906,0,0,0,.465-.143.224.224,0,0,0-.241-.378.475.475,0,0,1-.254.067,2.312,2.312,0,0,0-.17-.736,3.1,3.1,0,0,1-.116-.374c.018.016.036.032.053.047a.224.224,0,0,0,.317,0,.216.216,0,0,0,.033-.049c.232.32.71.992,1.2,1.767.094.952.176,2.167.176,3.5a.224.224,0,0,0,.448,0Z" transform="translate(-193.298 -165.605)" fill="#f5f5f5"/>
    <path id="Path_817" data-name="Path 817" d="M293.81,166.972a.224.224,0,1,0,.448,0,2.283,2.283,0,0,0-.248-.772.224.224,0,1,0-.4.2A1.99,1.99,0,0,1,293.81,166.972Z" transform="translate(-281.204 -165.614)" fill="#f5f5f5"/>
    <path id="Path_818" data-name="Path 818" d="M263.491,250.061a.224.224,0,0,0-.3.1.642.642,0,0,1-.093.133,1.252,1.252,0,0,1,.059-.414.224.224,0,0,0-.373-.224l-.448.448a.224.224,0,1,0,.317.317l.011-.011a.463.463,0,0,0,.12.235.41.41,0,0,0,.291.128.4.4,0,0,0,.062-.005.729.729,0,0,0,.454-.406A.224.224,0,0,0,263.491,250.061Z" transform="translate(-251.904 -243.751)" fill="#f5f5f5"/>
    <path id="Path_819" data-name="Path 819" d="M172.237,205.931h-1.579q.021-.084.043-.159c.63-.131,1-.334,1.114-.605a.5.5,0,0,0-.084-.5.555.555,0,0,0-.566-.242c-.318.065-.6.407-.805.957a2.576,2.576,0,0,0-1.293.559,3.47,3.47,0,0,0-.465-1.489.224.224,0,0,0-.373.248,3.234,3.234,0,0,1,.41,1.668,1.773,1.773,0,0,1-1.344,1.792c-.251,0-.362-.3-.41-.552a2.572,2.572,0,0,0,1.075-1.186,1.781,1.781,0,0,0-.149-1.214l-.017-.039.014.013a.224.224,0,1,0,.317-.317c-.131-.131-.385-.337-.616-.24a.381.381,0,0,0-.214.4.953.953,0,0,0,.1.36,1.354,1.354,0,0,1,.126.93,1.9,1.9,0,0,1-.733.809.22.22,0,0,0-.169-.082h0a.224.224,0,0,0-.224.224c0,.04,0,.083,0,.128a11.777,11.777,0,0,1-1.441.788.224.224,0,0,0,.093.428.221.221,0,0,0,.093-.02,12.905,12.905,0,0,0,1.338-.716.871.871,0,0,0,.81.737,1.9,1.9,0,0,0,1.5-1.1,1.3,1.3,0,0,0,.15.214,2.525,2.525,0,0,0,1.712.658.224.224,0,0,0,.016-.447.479.479,0,0,1-.28-.136.384.384,0,0,1-.073-.294c.023-.276.913-.482,1.7-.495a.224.224,0,0,0,.208-.149l.224-.63a.224.224,0,0,0-.211-.3Zm-.983-1.07.017,0c.021,0,.055.01.1.071.009.011.036.05.029.067-.026.063-.18.168-.5.263C171.04,204.984,171.178,204.876,171.254,204.861Zm-1.353,2.945a1.371,1.371,0,0,1-.62-.377.952.952,0,0,1-.2-.789.657.657,0,0,1,.047-.095c.315-.029,1.158.1,1.216.337a.752.752,0,0,0-.474.584A.944.944,0,0,0,169.9,207.806Z" transform="translate(-160.737 -201.423)" fill="#f5f5f5"/>
    <path id="Path_820" data-name="Path 820" d="M291.888,166.9l-.224-.672a.224.224,0,0,0-.435.093c.155,1.546.447,4.56.447,4.906,0,.31-.552.922-1.444,1.368a.224.224,0,0,0,.2.4c.815-.407,1.692-1.135,1.692-1.768,0-.331-.229-2.712-.36-4.05A.224.224,0,0,0,291.888,166.9Z" transform="translate(-277.949 -165.609)" fill="#f5f5f5"/>
    <path id="Path_821" data-name="Path 821" d="M336.083,194.32a.224.224,0,0,0,.375-.214,1.131,1.131,0,0,1-.032-.435.227.227,0,0,0,.233-.192.224.224,0,0,0-.19-.253.4.4,0,0,0-.369.124.513.513,0,0,0-.113.24l-.259-.259a.224.224,0,1,0-.317.317Z" transform="translate(-320.275 -191.011)" fill="#f5f5f5"/>
    <path id="Path_822" data-name="Path 822" d="M341.062,213.306l-.84.6a.224.224,0,1,0,.261.364l.84-.6a.224.224,0,1,0-.261-.364Z" transform="translate(-324.75 -209.764)" fill="#f5f5f5"/>
    <path id="Path_823" data-name="Path 823" d="M352.789,225.749a.224.224,0,0,0,.02.3.621.621,0,0,1,.045.322.224.224,0,0,0,.216.232h.008a.224.224,0,0,0,.224-.216c.016-.457-.133-.624-.2-.675A.224.224,0,0,0,352.789,225.749Z" transform="translate(-336.552 -221.365)" fill="#f5f5f5"/>
    <path id="Path_824" data-name="Path 824" d="M325.439,171.649a.224.224,0,0,0,.224-.224c0-.33-.017-.7-.045-1.083a8.176,8.176,0,0,1,.525.975.224.224,0,0,0,.206.136.221.221,0,0,0,.088-.018.224.224,0,0,0,.118-.294,12.322,12.322,0,0,0-1.025-1.767c-.088-.822-.2-1.628-.292-2.206a.216.216,0,0,0,.14-.035A.127.127,0,1,1,325.5,167a.814.814,0,0,1,.082.548.224.224,0,0,0,.174.265.237.237,0,0,0,.046,0,.224.224,0,0,0,.219-.179,1.269,1.269,0,0,0-.142-.88.225.225,0,0,0-.309-.069.222.222,0,0,0-.1.2.217.217,0,0,0-.025-.065l-.378-.588a.224.224,0,0,0-.409.16c0,.018.174,1,.326,2.185-.172-.242-.343-.48-.51-.706-.027-.339-.054-.652-.078-.911a.224.224,0,0,0,.137-.315l-.224-.448a.224.224,0,0,0-.423.122c.027.267.055.563.082.874-.142-.187-.273-.358-.385-.5a.224.224,0,0,0-.046-.37l-.448-.224a.224.224,0,0,0-.275.34c.012.015.564.706,1.223,1.6a18,18,0,0,1,.083,3.342c-.02.059-.054.129-.086.131-.135.019-.458-.284-.621-.608a.312.312,0,0,0-.3-.2c-.241.015-.335.28-.505.761a3.153,3.153,0,0,1-.445.948,2.543,2.543,0,0,1-.279-.882.223.223,0,0,0,.433-.076c0-.334-.234-2.878-.364-4.272a.224.224,0,0,0,.129-.278l-.224-.672a.224.224,0,0,0-.436.092c.152,1.6.438,4.684.447,5.11l0-.011a.224.224,0,1,0-.443.063c.065.458.233,1.245.617,1.373a.373.373,0,0,0,.119.019.44.44,0,0,0,.315-.146,3.231,3.231,0,0,0,.555-1.119c.033-.093.072-.2.109-.3.205.3.564.674.927.644a.55.55,0,0,0,.479-.436,12.614,12.614,0,0,0-.008-2.8c.189.265.378.535.558.8.07.671.12,1.343.12,1.895A.224.224,0,0,0,325.439,171.649Z" transform="translate(-307.247 -165.615)" fill="#f5f5f5"/>
    <path id="Path_825" data-name="Path 825" d="M383.032,170.875c-.159-1.182-.38-2.551-.52-3.392a.22.22,0,0,0,.188-.04.224.224,0,0,0,.042-.314l-.406-.532a.224.224,0,0,0-.4.174c0,.023.4,2.322.651,4.163a2.1,2.1,0,0,1-.369,1.681.991.991,0,0,1-.822.306.224.224,0,1,0-.028.447c.038,0,.075,0,.112,0a1.414,1.414,0,0,0,1.065-.452A2.5,2.5,0,0,0,383.032,170.875Z" transform="translate(-363.14 -166.019)" fill="#f5f5f5"/>
    <path id="Path_826" data-name="Path 826" d="M371.074,256.2a.227.227,0,0,0,.011.315.1.1,0,0,1,.027.046.105.105,0,0,1-.034.05.224.224,0,0,0,.317.317.508.508,0,0,0,.165-.382.533.533,0,0,0-.176-.365A.222.222,0,0,0,371.074,256.2Z" transform="translate(-353.646 -249.872)" fill="#f5f5f5"/>
    <path id="Path_827" data-name="Path 827" d="M157.845,327.069h-1.568v-.224a.224.224,0,0,0-.448,0v.224H143.957a3.127,3.127,0,0,0,2.016.672h9.856v.448a.224.224,0,0,0,.224.224h1.792a.672.672,0,1,0,0-1.344Zm0,.9h-1.568v-.224h1.792l-.04-.121a.218.218,0,0,1,.04.121A.224.224,0,0,1,157.845,327.965Z" transform="translate(-141.206 -315.825)" fill="#f5f5f5"/>
  </g>
</svg>
