<svg xmlns="http://www.w3.org/2000/svg" width="21.111" height="18.099" viewBox="0 0 21.111 18.099">
  <g id="Icon_ionic-ios-eye-off" data-name="Icon ionic-ios-eye-off" transform="translate(-2.252 -4.499)">
    <path id="Path_932" data-name="Path 932" d="M5.647,4.693A.67.67,0,0,0,4.7,5.64L21.455,22.4a.664.664,0,0,0,.646.17.653.653,0,0,0,.3-.174.668.668,0,0,0,0-.943Z" transform="translate(-0.743)" fill="#898989"/>
    <g id="Group_562" data-name="Group 562" transform="translate(2.252 6.762)">
      <path id="Path_933" data-name="Path 933" d="M13.006,20.1a4.238,4.238,0,0,1-4.03-6.052L6.459,11.531a33.06,33.06,0,0,0-4.011,3.832.745.745,0,0,0,0,1C5.5,19.746,8.2,22.654,12.8,22.654a9.075,9.075,0,0,0,3.879-.9l-2.05-2.05A4.283,4.283,0,0,1,13.006,20.1Z" transform="translate(-2.252 -9.08)" fill="#898989"/>
      <path id="Path_934" data-name="Path 934" d="M26.454,15.133a.739.739,0,0,0,.024-.976C24.013,11.165,20.6,7.875,16.085,7.875a8.823,8.823,0,0,0-3.865.9l2.06,2.06a4.153,4.153,0,0,1,1.617-.405,4.238,4.238,0,0,1,4.03,6.052L22.448,19A31.176,31.176,0,0,0,26.454,15.133Z" transform="translate(-5.538 -7.875)" fill="#898989"/>
      <path id="Path_935" data-name="Path 935" d="M13.51,17.8a3.028,3.028,0,0,0,2.776,2.776,2.946,2.946,0,0,0,1.1-.123l-3.761-3.761A3.083,3.083,0,0,0,13.51,17.8Z" transform="translate(-5.961 -10.782)" fill="#898989"/>
      <path id="Path_936" data-name="Path 936" d="M22,17.91c0-.061,0-.123,0-.184a2.09,2.09,0,0,1-.858.184c-.052,0-.1,0-.146,0l.877.881A3.014,3.014,0,0,0,22,17.91Z" transform="translate(-8.431 -11.123)" fill="#898989"/>
      <path id="Path_937" data-name="Path 937" d="M17.571,14.3a2.214,2.214,0,0,1,.146-.8c-.047,0-.094,0-.146,0a2.982,2.982,0,0,0-.872.132l.881.881C17.576,14.443,17.571,14.372,17.571,14.3Z" transform="translate(-7.015 -9.73)" fill="#898989"/>
    </g>
  </g>
</svg>
